<?xml version="1.0" encoding="UTF-8" standalone="no"?>
<!DOCTYPE svg PUBLIC "-//W3C//DTD SVG 1.1//EN"
 "http://www.w3.org/Graphics/SVG/1.1/DTD/svg11.dtd">
<!-- Generated by graphviz version 2.42.4 (0)
 -->
<!-- Title: handle_mouse_event Pages: 1 -->
<svg width="549pt" height="46pt"
 viewBox="0.00 0.00 549.00 46.00" xmlns="http://www.w3.org/2000/svg" xmlns:xlink="http://www.w3.org/1999/xlink">
<g id="graph0" class="graph" transform="scale(1 1) rotate(0) translate(4 42)">
<title>handle_mouse_event</title>
<!-- Node1 -->
<g id="Node000001" class="node">
<title>Node1</title>
<g id="a_Node000001"><a xlink:title=" ">
<polygon fill="#999999" stroke="#666666" points="121,-19 0,-19 0,0 121,0 121,-19"/>
<text text-anchor="middle" x="60.5" y="-7" font-family="Helvetica,sans-Serif" font-size="10.00">handle_mouse_event</text>
</a>
</g>
</g>
<!-- Node2 -->
<g id="Node000002" class="node">
<title>Node2</title>
<g id="a_Node000002"><a xlink:href="draw__interface_8c.html#ae89db5b75abff68dc9c10bf87370036e" target="_top" xlink:title=" ">
<polygon fill="white" stroke="#666666" points="221,-38 157,-38 157,-19 221,-19 221,-38"/>
<text text-anchor="middle" x="189" y="-26" font-family="Helvetica,sans-Serif" font-size="10.00">draw_line</text>
</a>
</g>
</g>
<!-- Node1&#45;&gt;Node2 -->
<g id="edge1_Node000001_Node000002" class="edge">
<title>Node1&#45;&gt;Node2</title>
<g id="a_edge1_Node000001_Node000002"><a xlink:title=" ">
<path fill="none" stroke="#63b8ff" d="M121.05,-18.44C129.79,-19.76 138.62,-21.08 146.88,-22.32"/>
<polygon fill="#63b8ff" stroke="#63b8ff" points="146.58,-25.82 156.99,-23.84 147.62,-18.9 146.58,-25.82"/>
</a>
</g>
</g>
<!-- Node4 -->
<g id="Node000004" class="node">
<title>Node4</title>
<g id="a_Node000004"><a xlink:href="draw__interface_8c.html#ae33641352570bac2c068f9a8b0a65bf4" target="_top" xlink:title=" ">
<polygon fill="white" stroke="#666666" points="541,-19 443,-19 443,0 541,0 541,-19"/>
<text text-anchor="middle" x="492" y="-7" font-family="Helvetica,sans-Serif" font-size="10.00">is_valid_position</text>
</a>
</g>
</g>
<!-- Node1&#45;&gt;Node4 -->
<g id="edge4_Node000001_Node000004" class="edge">
<title>Node1&#45;&gt;Node4</title>
<g id="a_edge4_Node000001_Node000004"><a xlink:title=" ">
<path fill="none" stroke="#63b8ff" d="M121.22,-9.5C203.56,-9.5 351.01,-9.5 432.63,-9.5"/>
<polygon fill="#63b8ff" stroke="#63b8ff" points="432.73,-13 442.73,-9.5 432.73,-6 432.73,-13"/>
</a>
</g>
</g>
<!-- Node3 -->
<g id="Node000003" class="node">
<title>Node3</title>
<g id="a_Node000003"><a xlink:href="draw__interface_8c.html#a4c078eca06d8f6d2b73be94479346a81" target="_top" xlink:title=" ">
<polygon fill="white" stroke="#666666" points="407,-38 257,-38 257,-19 407,-19 407,-38"/>
<text text-anchor="middle" x="332" y="-26" font-family="Helvetica,sans-Serif" font-size="10.00">draw_point_with_neighbors</text>
</a>
</g>
</g>
<!-- Node2&#45;&gt;Node3 -->
<g id="edge2_Node000002_Node000003" class="edge">
<title>Node2&#45;&gt;Node3</title>
<g id="a_edge2_Node000002_Node000003"><a xlink:title=" ">
<path fill="none" stroke="#63b8ff" d="M221.29,-28.5C229.01,-28.5 237.66,-28.5 246.61,-28.5"/>
<polygon fill="#63b8ff" stroke="#63b8ff" points="246.82,-32 256.82,-28.5 246.82,-25 246.82,-32"/>
</a>
</g>
</g>
<!-- Node3&#45;&gt;Node4 -->
<g id="edge3_Node000003_Node000004" class="edge">
<title>Node3&#45;&gt;Node4</title>
<g id="a_edge3_Node000003_Node000004"><a xlink:title=" ">
<path fill="none" stroke="#63b8ff" d="M407.37,-19.56C415.82,-18.54 424.33,-17.52 432.52,-16.53"/>
<polygon fill="#63b8ff" stroke="#63b8ff" points="433.2,-19.98 442.71,-15.31 432.36,-13.03 433.2,-19.98"/>
</a>
</g>
</g>
</g>
</svg>
