<?xml version="1.0" encoding="UTF-8" standalone="no"?>
<!DOCTYPE svg PUBLIC "-//W3C//DTD SVG 1.1//EN"
 "http://www.w3.org/Graphics/SVG/1.1/DTD/svg11.dtd">
<!-- Generated by graphviz version 2.42.4 (0)
 -->
<!-- Title: reset_cells Pages: 1 -->
<svg width="666pt" height="103pt"
 viewBox="0.00 0.00 666.00 103.00" xmlns="http://www.w3.org/2000/svg" xmlns:xlink="http://www.w3.org/1999/xlink">
<g id="graph0" class="graph" transform="scale(1 1) rotate(0) translate(4 99)">
<title>reset_cells</title>
<!-- Node1 -->
<g id="Node000001" class="node">
<title>Node1</title>
<g id="a_Node000001"><a xlink:title=" ">
<polygon fill="#999999" stroke="#666666" points="658,-38 589,-38 589,-19 658,-19 658,-38"/>
<text text-anchor="middle" x="623.5" y="-26" font-family="Helvetica,sans-Serif" font-size="10.00">reset_cells</text>
</a>
</g>
</g>
<!-- Node2 -->
<g id="Node000002" class="node">
<title>Node2</title>
<g id="a_Node000002"><a xlink:href="draw__interface_8c.html#a5d388b991a24af37be16f95b67b4a054" target="_top" xlink:title=" ">
<polygon fill="white" stroke="#666666" points="553,-57 488,-57 488,-38 553,-38 553,-57"/>
<text text-anchor="middle" x="520.5" y="-45" font-family="Helvetica,sans-Serif" font-size="10.00">clear_grid</text>
</a>
</g>
</g>
<!-- Node1&#45;&gt;Node2 -->
<g id="edge1_Node000001_Node000002" class="edge">
<title>Node1&#45;&gt;Node2</title>
<g id="a_edge1_Node000001_Node000002"><a xlink:title=" ">
<path fill="none" stroke="#63b8ff" d="M578.93,-36.7C570.31,-38.32 561.42,-39.99 553.28,-41.52"/>
<polygon fill="#63b8ff" stroke="#63b8ff" points="579.69,-40.12 588.87,-34.83 578.39,-33.24 579.69,-40.12"/>
</a>
</g>
</g>
<!-- Node7 -->
<g id="Node000007" class="node">
<title>Node7</title>
<g id="a_Node000007"><a xlink:href="draw__interface_8c.html#a5b64deeee9cccbfca98154b87818c3ac" target="_top" xlink:title=" ">
<polygon fill="white" stroke="#666666" points="548.5,-20 492.5,-20 492.5,-1 548.5,-1 548.5,-20"/>
<text text-anchor="middle" x="520.5" y="-8" font-family="Helvetica,sans-Serif" font-size="10.00">init_grid</text>
</a>
</g>
</g>
<!-- Node1&#45;&gt;Node7 -->
<g id="edge7_Node000001_Node000007" class="edge">
<title>Node1&#45;&gt;Node7</title>
<g id="a_edge7_Node000001_Node000007"><a xlink:title=" ">
<path fill="none" stroke="#63b8ff" d="M578.8,-20.71C568.54,-18.88 557.9,-16.99 548.61,-15.33"/>
<polygon fill="#63b8ff" stroke="#63b8ff" points="578.41,-24.2 588.87,-22.51 579.64,-17.31 578.41,-24.2"/>
</a>
</g>
</g>
<!-- Node3 -->
<g id="Node000003" class="node">
<title>Node3</title>
<g id="a_Node000003"><a xlink:href="main_8c.html#a1c4840b45de140502290de0163a54697" target="_top" xlink:title=" ">
<polygon fill="white" stroke="#666666" points="452,-95 344,-95 344,-76 452,-76 452,-95"/>
<text text-anchor="middle" x="398" y="-83" font-family="Helvetica,sans-Serif" font-size="10.00">draw_digit_pattern</text>
</a>
</g>
</g>
<!-- Node2&#45;&gt;Node3 -->
<g id="edge2_Node000002_Node000003" class="edge">
<title>Node2&#45;&gt;Node3</title>
<g id="a_edge2_Node000002_Node000003"><a xlink:title=" ">
<path fill="none" stroke="#63b8ff" d="M479.29,-60.18C463.01,-65.31 444.52,-71.14 429.4,-75.91"/>
<polygon fill="#63b8ff" stroke="#63b8ff" points="480.61,-63.43 489.09,-57.09 478.5,-56.76 480.61,-63.43"/>
</a>
</g>
</g>
<!-- Node5 -->
<g id="Node000005" class="node">
<title>Node5</title>
<g id="a_Node000005"><a xlink:href="main_8c.html#a06b78cf19a7870244bb1fcf3cf8b1188" target="_top" xlink:title=" ">
<polygon fill="white" stroke="#666666" points="161,-57 77,-57 77,-38 161,-38 161,-57"/>
<text text-anchor="middle" x="119" y="-45" font-family="Helvetica,sans-Serif" font-size="10.00">process_input</text>
</a>
</g>
</g>
<!-- Node2&#45;&gt;Node5 -->
<g id="edge6_Node000002_Node000005" class="edge">
<title>Node2&#45;&gt;Node5</title>
<g id="a_edge6_Node000002_Node000005"><a xlink:title=" ">
<path fill="none" stroke="#63b8ff" d="M477.54,-47.5C400.49,-47.5 237.41,-47.5 161.05,-47.5"/>
<polygon fill="#63b8ff" stroke="#63b8ff" points="477.82,-51 487.82,-47.5 477.82,-44 477.82,-51"/>
</a>
</g>
</g>
<!-- Node4 -->
<g id="Node000004" class="node">
<title>Node4</title>
<g id="a_Node000004"><a xlink:href="main_8c.html#aba2e57f6612dd678b1dfdad86707577c" target="_top" xlink:title=" ">
<polygon fill="white" stroke="#666666" points="308,-95 197,-95 197,-76 308,-76 308,-95"/>
<text text-anchor="middle" x="252.5" y="-83" font-family="Helvetica,sans-Serif" font-size="10.00">process_digit_input</text>
</a>
</g>
</g>
<!-- Node3&#45;&gt;Node4 -->
<g id="edge3_Node000003_Node000004" class="edge">
<title>Node3&#45;&gt;Node4</title>
<g id="a_edge3_Node000003_Node000004"><a xlink:title=" ">
<path fill="none" stroke="#63b8ff" d="M333.72,-85.5C325.22,-85.5 316.56,-85.5 308.23,-85.5"/>
<polygon fill="#63b8ff" stroke="#63b8ff" points="333.97,-89 343.97,-85.5 333.97,-82 333.97,-89"/>
</a>
</g>
</g>
<!-- Node4&#45;&gt;Node5 -->
<g id="edge4_Node000004_Node000005" class="edge">
<title>Node4&#45;&gt;Node5</title>
<g id="a_edge4_Node000004_Node000005"><a xlink:title=" ">
<path fill="none" stroke="#63b8ff" d="M208.62,-73.11C190.61,-67.91 169.99,-61.95 153.17,-57.09"/>
<polygon fill="#63b8ff" stroke="#63b8ff" points="207.74,-76.5 218.32,-75.91 209.68,-69.77 207.74,-76.5"/>
</a>
</g>
</g>
<!-- Node6 -->
<g id="Node000006" class="node">
<title>Node6</title>
<g id="a_Node000006"><a xlink:href="main_8c.html#a840291bc02cba5474a4cb46a9b9566fe" target="_top" xlink:title=" ">
<polygon fill="white" stroke="#666666" points="41,-38 0,-38 0,-19 41,-19 41,-38"/>
<text text-anchor="middle" x="20.5" y="-26" font-family="Helvetica,sans-Serif" font-size="10.00">main</text>
</a>
</g>
</g>
<!-- Node5&#45;&gt;Node6 -->
<g id="edge5_Node000005_Node000006" class="edge">
<title>Node5&#45;&gt;Node6</title>
<g id="a_edge5_Node000005_Node000006"><a xlink:title=" ">
<path fill="none" stroke="#63b8ff" d="M66.85,-37.43C57.67,-35.62 48.63,-33.84 41.07,-32.35"/>
<polygon fill="#63b8ff" stroke="#63b8ff" points="66.31,-40.89 76.8,-39.39 67.66,-34.02 66.31,-40.89"/>
</a>
</g>
</g>
<!-- Node8 -->
<g id="Node000008" class="node">
<title>Node8</title>
<g id="a_Node000008"><a xlink:href="main_8c.html#ab6807dd21386bc6486fd2d7c70de09bc" target="_top" xlink:title=" ">
<polygon fill="white" stroke="#666666" points="292,-19 213,-19 213,0 292,0 292,-19"/>
<text text-anchor="middle" x="252.5" y="-7" font-family="Helvetica,sans-Serif" font-size="10.00">init_systems</text>
</a>
</g>
</g>
<!-- Node7&#45;&gt;Node8 -->
<g id="edge8_Node000007_Node000008" class="edge">
<title>Node7&#45;&gt;Node8</title>
<g id="a_edge8_Node000007_Node000008"><a xlink:title=" ">
<path fill="none" stroke="#63b8ff" d="M481.93,-10.36C431.73,-10.17 343.21,-9.84 292.36,-9.65"/>
<polygon fill="#63b8ff" stroke="#63b8ff" points="482.02,-13.86 492.04,-10.4 482.05,-6.86 482.02,-13.86"/>
</a>
</g>
</g>
<!-- Node8&#45;&gt;Node6 -->
<g id="edge9_Node000008_Node000006" class="edge">
<title>Node8&#45;&gt;Node6</title>
<g id="a_edge9_Node000008_Node000006"><a xlink:title=" ">
<path fill="none" stroke="#63b8ff" d="M202.76,-13.53C152.57,-17.67 76.84,-23.93 41.27,-26.87"/>
<polygon fill="#63b8ff" stroke="#63b8ff" points="203.07,-17.01 212.74,-12.7 202.49,-10.04 203.07,-17.01"/>
</a>
</g>
</g>
</g>
</svg>
