<?xml version="1.0" encoding="UTF-8" standalone="no"?>
<!DOCTYPE svg PUBLIC "-//W3C//DTD SVG 1.1//EN"
 "http://www.w3.org/Graphics/SVG/1.1/DTD/svg11.dtd">
<!-- Generated by graphviz version 2.42.4 (0)
 -->
<!-- Title: process_mouse_event Pages: 1 -->
<svg width="710pt" height="46pt"
 viewBox="0.00 0.00 710.00 46.00" xmlns="http://www.w3.org/2000/svg" xmlns:xlink="http://www.w3.org/1999/xlink">
<g id="graph0" class="graph" transform="scale(1 1) rotate(0) translate(4 42)">
<title>process_mouse_event</title>
<!-- Node1 -->
<g id="Node000001" class="node">
<title>Node1</title>
<g id="a_Node000001"><a xlink:title=" ">
<polygon fill="#999999" stroke="#666666" points="125,-19 0,-19 0,0 125,0 125,-19"/>
<text text-anchor="middle" x="62.5" y="-7" font-family="Helvetica,sans-Serif" font-size="10.00">process_mouse_event</text>
</a>
</g>
</g>
<!-- Node2 -->
<g id="Node000002" class="node">
<title>Node2</title>
<g id="a_Node000002"><a xlink:href="draw__interface_8c.html#a1d78a5537da73e9e0c1c46ff57670bcb" target="_top" xlink:title=" ">
<polygon fill="white" stroke="#666666" points="282,-19 161,-19 161,0 282,0 282,-19"/>
<text text-anchor="middle" x="221.5" y="-7" font-family="Helvetica,sans-Serif" font-size="10.00">handle_mouse_event</text>
</a>
</g>
</g>
<!-- Node1&#45;&gt;Node2 -->
<g id="edge1_Node000001_Node000002" class="edge">
<title>Node1&#45;&gt;Node2</title>
<g id="a_edge1_Node000001_Node000002"><a xlink:title=" ">
<path fill="none" stroke="#63b8ff" d="M125.1,-9.5C133.47,-9.5 142.1,-9.5 150.6,-9.5"/>
<polygon fill="#63b8ff" stroke="#63b8ff" points="150.88,-13 160.88,-9.5 150.88,-6 150.88,-13"/>
</a>
</g>
</g>
<!-- Node3 -->
<g id="Node000003" class="node">
<title>Node3</title>
<g id="a_Node000003"><a xlink:href="draw__interface_8c.html#ae89db5b75abff68dc9c10bf87370036e" target="_top" xlink:title=" ">
<polygon fill="white" stroke="#666666" points="382,-38 318,-38 318,-19 382,-19 382,-38"/>
<text text-anchor="middle" x="350" y="-26" font-family="Helvetica,sans-Serif" font-size="10.00">draw_line</text>
</a>
</g>
</g>
<!-- Node2&#45;&gt;Node3 -->
<g id="edge2_Node000002_Node000003" class="edge">
<title>Node2&#45;&gt;Node3</title>
<g id="a_edge2_Node000002_Node000003"><a xlink:title=" ">
<path fill="none" stroke="#63b8ff" d="M282.05,-18.44C290.79,-19.76 299.62,-21.08 307.88,-22.32"/>
<polygon fill="#63b8ff" stroke="#63b8ff" points="307.58,-25.82 317.99,-23.84 308.62,-18.9 307.58,-25.82"/>
</a>
</g>
</g>
<!-- Node5 -->
<g id="Node000005" class="node">
<title>Node5</title>
<g id="a_Node000005"><a xlink:href="draw__interface_8c.html#ae33641352570bac2c068f9a8b0a65bf4" target="_top" xlink:title=" ">
<polygon fill="white" stroke="#666666" points="702,-19 604,-19 604,0 702,0 702,-19"/>
<text text-anchor="middle" x="653" y="-7" font-family="Helvetica,sans-Serif" font-size="10.00">is_valid_position</text>
</a>
</g>
</g>
<!-- Node2&#45;&gt;Node5 -->
<g id="edge5_Node000002_Node000005" class="edge">
<title>Node2&#45;&gt;Node5</title>
<g id="a_edge5_Node000002_Node000005"><a xlink:title=" ">
<path fill="none" stroke="#63b8ff" d="M282.22,-9.5C364.56,-9.5 512.01,-9.5 593.63,-9.5"/>
<polygon fill="#63b8ff" stroke="#63b8ff" points="593.73,-13 603.73,-9.5 593.73,-6 593.73,-13"/>
</a>
</g>
</g>
<!-- Node4 -->
<g id="Node000004" class="node">
<title>Node4</title>
<g id="a_Node000004"><a xlink:href="draw__interface_8c.html#a4c078eca06d8f6d2b73be94479346a81" target="_top" xlink:title=" ">
<polygon fill="white" stroke="#666666" points="568,-38 418,-38 418,-19 568,-19 568,-38"/>
<text text-anchor="middle" x="493" y="-26" font-family="Helvetica,sans-Serif" font-size="10.00">draw_point_with_neighbors</text>
</a>
</g>
</g>
<!-- Node3&#45;&gt;Node4 -->
<g id="edge3_Node000003_Node000004" class="edge">
<title>Node3&#45;&gt;Node4</title>
<g id="a_edge3_Node000003_Node000004"><a xlink:title=" ">
<path fill="none" stroke="#63b8ff" d="M382.29,-28.5C390.01,-28.5 398.66,-28.5 407.61,-28.5"/>
<polygon fill="#63b8ff" stroke="#63b8ff" points="407.82,-32 417.82,-28.5 407.82,-25 407.82,-32"/>
</a>
</g>
</g>
<!-- Node4&#45;&gt;Node5 -->
<g id="edge4_Node000004_Node000005" class="edge">
<title>Node4&#45;&gt;Node5</title>
<g id="a_edge4_Node000004_Node000005"><a xlink:title=" ">
<path fill="none" stroke="#63b8ff" d="M568.37,-19.56C576.82,-18.54 585.33,-17.52 593.52,-16.53"/>
<polygon fill="#63b8ff" stroke="#63b8ff" points="594.2,-19.98 603.71,-15.31 593.36,-13.03 594.2,-19.98"/>
</a>
</g>
</g>
</g>
</svg>
