<?xml version="1.0" encoding="UTF-8" standalone="no"?>
<!DOCTYPE svg PUBLIC "-//W3C//DTD SVG 1.1//EN"
 "http://www.w3.org/Graphics/SVG/1.1/DTD/svg11.dtd">
<!-- Generated by graphviz version 2.42.4 (0)
 -->
<!-- Title: process_submission Pages: 1 -->
<svg width="411pt" height="249pt"
 viewBox="0.00 0.00 411.00 249.00" xmlns="http://www.w3.org/2000/svg" xmlns:xlink="http://www.w3.org/1999/xlink">

<svg id="main" version="1.1" xmlns="http://www.w3.org/2000/svg" xmlns:xlink="http://www.w3.org/1999/xlink" xml:space="preserve" onload="init(evt)">
<style type="text/css"><![CDATA[
.node, .edge {opacity: 0.7;}
.node.selected, .edge.selected {opacity: 1;}
.edge:hover path { stroke: red; }
.edge:hover polygon { stroke: red; fill: red; }
]]></style>
<script type="application/ecmascript" xlink:href="svg.min.js"/>
<svg id="graph" class="graph">
<g id="graph0" class="graph" transform="scale(1 1) rotate(0) translate(4 245)">
<title>process_submission</title>
<!-- Node1 -->
<g id="Node000001" class="node">
<title>Node1</title>
<g id="a_Node000001"><a xlink:title=" ">
<polygon fill="#999999" stroke="#666666" points="115,-185 0,-185 0,-166 115,-166 115,-185"/>
<text text-anchor="middle" x="57.5" y="-173" font-family="Helvetica,sans-Serif" font-size="10.00">process_submission</text>
</a>
</g>
</g>
<!-- Node2 -->
<g id="Node000002" class="node">
<title>Node2</title>
<g id="a_Node000002"><a xlink:href="neural__net_8c.html#a643bfaff68b9c9e918e24459d2d8add3" target="_top" xlink:title=" ">
<polygon fill="white" stroke="#666666" points="239,-231 157,-231 157,-212 239,-212 239,-231"/>
<text text-anchor="middle" x="198" y="-219" font-family="Helvetica,sans-Serif" font-size="10.00">forward_pass</text>
</a>
</g>
</g>
<!-- Node1&#45;&gt;Node2 -->
<g id="edge1_Node000001_Node000002" class="edge">
<title>Node1&#45;&gt;Node2</title>
<g id="a_edge1_Node000001_Node000002"><a xlink:title=" ">
<path fill="none" stroke="#63b8ff" d="M87.2,-185.03C107.9,-191.91 136.08,-201.27 158.7,-208.78"/>
<polygon fill="#63b8ff" stroke="#63b8ff" points="157.75,-212.15 168.34,-211.98 159.95,-205.51 157.75,-212.15"/>
</a>
</g>
</g>
<!-- Node4 -->
<g id="Node000004" class="node">
<title>Node4</title>
<g id="a_Node000004"><a xlink:href="neural__net_8c.html#a8089dd9aaff49a3011d1b83dffef64c0" target="_top" xlink:title=" ">
<polygon fill="white" stroke="#666666" points="241,-185 155,-185 155,-166 241,-166 241,-185"/>
<text text-anchor="middle" x="198" y="-173" font-family="Helvetica,sans-Serif" font-size="10.00">get_prediction</text>
</a>
</g>
</g>
<!-- Node1&#45;&gt;Node4 -->
<g id="edge3_Node000001_Node000004" class="edge">
<title>Node1&#45;&gt;Node4</title>
<g id="a_edge3_Node000001_Node000004"><a xlink:title=" ">
<path fill="none" stroke="#63b8ff" d="M115.23,-175.5C125,-175.5 135.11,-175.5 144.75,-175.5"/>
<polygon fill="#63b8ff" stroke="#63b8ff" points="144.99,-179 154.99,-175.5 144.99,-172 144.99,-179"/>
</a>
</g>
</g>
<!-- Node5 -->
<g id="Node000005" class="node">
<title>Node5</title>
<g id="a_Node000005"><a xlink:href="utils_8c.html#a114718dee67e7bc50138626116a67535" target="_top" xlink:title=" ">
<polygon fill="white" stroke="#666666" points="245,-130 151,-130 151,-111 245,-111 245,-130"/>
<text text-anchor="middle" x="198" y="-118" font-family="Helvetica,sans-Serif" font-size="10.00">preprocess_grid</text>
</a>
</g>
</g>
<!-- Node1&#45;&gt;Node5 -->
<g id="edge4_Node000001_Node000005" class="edge">
<title>Node1&#45;&gt;Node5</title>
<g id="a_edge4_Node000001_Node000005"><a xlink:title=" ">
<path fill="none" stroke="#63b8ff" d="M82.62,-165.92C104.93,-157.06 138.3,-143.81 163.24,-133.91"/>
<polygon fill="#63b8ff" stroke="#63b8ff" points="164.68,-137.1 172.69,-130.16 162.1,-130.59 164.68,-137.1"/>
</a>
</g>
</g>
<!-- Node3 -->
<g id="Node000003" class="node">
<title>Node3</title>
<g id="a_Node000003"><a xlink:href="neural__net_8c.html#ad4ca22dfbd464dd7fb67dc23234146e3" target="_top" xlink:title=" ">
<polygon fill="white" stroke="#666666" points="359.5,-241 324.5,-241 324.5,-222 359.5,-222 359.5,-241"/>
<text text-anchor="middle" x="342" y="-229" font-family="Helvetica,sans-Serif" font-size="10.00">relu</text>
</a>
</g>
</g>
<!-- Node2&#45;&gt;Node3 -->
<g id="edge2_Node000002_Node000003" class="edge">
<title>Node2&#45;&gt;Node3</title>
<g id="a_edge2_Node000002_Node000003"><a xlink:title=" ">
<path fill="none" stroke="#63b8ff" d="M239.31,-224.34C263.33,-226.03 293.15,-228.13 314.27,-229.62"/>
<polygon fill="#63b8ff" stroke="#63b8ff" points="314.23,-233.12 324.45,-230.33 314.72,-226.14 314.23,-233.12"/>
</a>
</g>
</g>
<!-- Node6 -->
<g id="Node000006" class="node">
<title>Node6</title>
<g id="a_Node000006"><a xlink:href="utils_8c.html#a8b8c5ef5eb34311a44afb0dca3515a62" target="_top" xlink:title=" ">
<polygon fill="white" stroke="#666666" points="398,-204 286,-204 286,-185 398,-185 398,-204"/>
<text text-anchor="middle" x="342" y="-192" font-family="Helvetica,sans-Serif" font-size="10.00">bilinear_interpolate</text>
</a>
</g>
</g>
<!-- Node5&#45;&gt;Node6 -->
<g id="edge5_Node000005_Node000006" class="edge">
<title>Node5&#45;&gt;Node6</title>
<g id="a_edge5_Node000005_Node000006"><a xlink:title=" ">
<path fill="none" stroke="#63b8ff" d="M210.52,-130.08C225.78,-142.35 253.93,-163.58 281,-176.5 284.86,-178.34 288.96,-180.05 293.12,-181.61"/>
<polygon fill="#63b8ff" stroke="#63b8ff" points="292.29,-185.02 302.89,-184.99 294.58,-178.41 292.29,-185.02"/>
</a>
</g>
</g>
<!-- Node7 -->
<g id="Node000007" class="node">
<title>Node7</title>
<g id="a_Node000007"><a xlink:href="utils_8c.html#a322c51e33866a7d367c227275f96bcc9" target="_top" xlink:title=" ">
<polygon fill="white" stroke="#666666" points="403,-167 281,-167 281,-148 403,-148 403,-167"/>
<text text-anchor="middle" x="342" y="-155" font-family="Helvetica,sans-Serif" font-size="10.00">calculate_dimensions</text>
</a>
</g>
</g>
<!-- Node5&#45;&gt;Node7 -->
<g id="edge6_Node000005_Node000007" class="edge">
<title>Node5&#45;&gt;Node7</title>
<g id="a_edge6_Node000005_Node000007"><a xlink:title=" ">
<path fill="none" stroke="#63b8ff" d="M235.57,-130.03C253.48,-134.7 275.26,-140.37 294.35,-145.35"/>
<polygon fill="#63b8ff" stroke="#63b8ff" points="293.5,-148.74 304.06,-147.88 295.27,-141.97 293.5,-148.74"/>
</a>
</g>
</g>
<!-- Node8 -->
<g id="Node000008" class="node">
<title>Node8</title>
<g id="a_Node000008"><a xlink:href="utils_8c.html#a18488a38ee9e1564b4f4498e23ffed95" target="_top" xlink:title=" ">
<polygon fill="white" stroke="#666666" points="391,-130 293,-130 293,-111 391,-111 391,-130"/>
<text text-anchor="middle" x="342" y="-118" font-family="Helvetica,sans-Serif" font-size="10.00">close_debug_log</text>
</a>
</g>
</g>
<!-- Node5&#45;&gt;Node8 -->
<g id="edge7_Node000005_Node000008" class="edge">
<title>Node5&#45;&gt;Node8</title>
<g id="a_edge7_Node000005_Node000008"><a xlink:title=" ">
<path fill="none" stroke="#63b8ff" d="M245.1,-120.5C257,-120.5 269.96,-120.5 282.4,-120.5"/>
<polygon fill="#63b8ff" stroke="#63b8ff" points="282.69,-124 292.69,-120.5 282.69,-117 282.69,-124"/>
</a>
</g>
</g>
<!-- Node9 -->
<g id="Node000009" class="node">
<title>Node9</title>
<g id="a_Node000009"><a xlink:href="utils_8c.html#a17a70dd5a0eb5cab8f04530af4573b19" target="_top" xlink:title=" ">
<polygon fill="white" stroke="#666666" points="391,-93 293,-93 293,-74 391,-74 391,-93"/>
<text text-anchor="middle" x="342" y="-81" font-family="Helvetica,sans-Serif" font-size="10.00">debug_print_grid</text>
</a>
</g>
</g>
<!-- Node5&#45;&gt;Node9 -->
<g id="edge8_Node000005_Node000009" class="edge">
<title>Node5&#45;&gt;Node9</title>
<g id="a_edge8_Node000005_Node000009"><a xlink:title=" ">
<path fill="none" stroke="#63b8ff" d="M235.57,-110.97C253.48,-106.3 275.26,-100.63 294.35,-95.65"/>
<polygon fill="#63b8ff" stroke="#63b8ff" points="295.27,-99.03 304.06,-93.12 293.5,-92.26 295.27,-99.03"/>
</a>
</g>
</g>
<!-- Node10 -->
<g id="Node000010" class="node">
<title>Node10</title>
<g id="a_Node000010"><a xlink:href="utils_8c.html#a73e441f626659500174c898e56f181be" target="_top" xlink:title=" ">
<polygon fill="white" stroke="#666666" points="391.5,-56 292.5,-56 292.5,-37 391.5,-37 391.5,-56"/>
<text text-anchor="middle" x="342" y="-44" font-family="Helvetica,sans-Serif" font-size="10.00">find_grid_bounds</text>
</a>
</g>
</g>
<!-- Node5&#45;&gt;Node10 -->
<g id="edge9_Node000005_Node000010" class="edge">
<title>Node5&#45;&gt;Node10</title>
<g id="a_edge9_Node000005_Node000010"><a xlink:title=" ">
<path fill="none" stroke="#63b8ff" d="M210.84,-110.96C226.23,-98.96 254.28,-78.37 281,-65.5 285.62,-63.28 290.56,-61.23 295.55,-59.37"/>
<polygon fill="#63b8ff" stroke="#63b8ff" points="296.85,-62.62 305.14,-56.02 294.54,-56.01 296.85,-62.62"/>
</a>
</g>
</g>
<!-- Node11 -->
<g id="Node000011" class="node">
<title>Node11</title>
<g id="a_Node000011"><a xlink:href="utils_8c.html#a0677da37b66afc30330b446d9ec75380" target="_top" xlink:title=" ">
<polygon fill="white" stroke="#666666" points="390,-19 294,-19 294,0 390,0 390,-19"/>
<text text-anchor="middle" x="342" y="-7" font-family="Helvetica,sans-Serif" font-size="10.00">open_debug_log</text>
</a>
</g>
</g>
<!-- Node5&#45;&gt;Node11 -->
<g id="edge10_Node000005_Node000011" class="edge">
<title>Node5&#45;&gt;Node11</title>
<g id="a_edge10_Node000005_Node000011"><a xlink:title=" ">
<path fill="none" stroke="#63b8ff" d="M204.97,-110.9C217.03,-92.26 246.16,-51.06 281,-28.5 284.12,-26.48 287.47,-24.66 290.93,-23.03"/>
<polygon fill="#63b8ff" stroke="#63b8ff" points="292.4,-26.2 300.28,-19.12 289.7,-19.75 292.4,-26.2"/>
</a>
</g>
</g>
</g>
</svg>
</svg>

<style type='text/css'>
<![CDATA[
[data-mouse-over-selected='false'] { opacity: 0.7; }
[data-mouse-over-selected='true']  { opacity: 1.0; }
]]>
</style>
<script type="application/ecmascript"><![CDATA[
document.addEventListener('DOMContentLoaded', (event) => {
  highlightEdges();
  highlightAdjacentNodes();
});
]]></script>
</svg>
