<?xml version="1.0" encoding="UTF-8" standalone="no"?>
<!DOCTYPE svg PUBLIC "-//W3C//DTD SVG 1.1//EN"
 "http://www.w3.org/Graphics/SVG/1.1/DTD/svg11.dtd">
<!-- Generated by graphviz version 2.42.4 (0)
 -->
<!-- Title: init_systems Pages: 1 -->
<svg width="341pt" height="101pt"
 viewBox="0.00 0.00 341.00 101.00" xmlns="http://www.w3.org/2000/svg" xmlns:xlink="http://www.w3.org/1999/xlink">
<g id="graph0" class="graph" transform="scale(1 1) rotate(0) translate(4 97)">
<title>init_systems</title>
<!-- Node1 -->
<g id="Node000001" class="node">
<title>Node1</title>
<g id="a_Node000001"><a xlink:title=" ">
<polygon fill="#999999" stroke="#666666" points="79,-56 0,-56 0,-37 79,-37 79,-56"/>
<text text-anchor="middle" x="39.5" y="-44" font-family="Helvetica,sans-Serif" font-size="10.00">init_systems</text>
</a>
</g>
</g>
<!-- Node2 -->
<g id="Node000002" class="node">
<title>Node2</title>
<g id="a_Node000002"><a xlink:href="draw__interface_8c.html#aabbd4c066cfda367b039907d582ea232" target="_top" xlink:title=" ">
<polygon fill="white" stroke="#666666" points="189.5,-93 129.5,-93 129.5,-74 189.5,-74 189.5,-93"/>
<text text-anchor="middle" x="159.5" y="-81" font-family="Helvetica,sans-Serif" font-size="10.00">free_grid</text>
</a>
</g>
</g>
<!-- Node1&#45;&gt;Node2 -->
<g id="edge1_Node000001_Node000002" class="edge">
<title>Node1&#45;&gt;Node2</title>
<g id="a_edge1_Node000001_Node000002"><a xlink:title=" ">
<path fill="none" stroke="#63b8ff" d="M70.89,-56.03C85.82,-60.71 103.97,-66.4 119.87,-71.39"/>
<polygon fill="#63b8ff" stroke="#63b8ff" points="118.85,-74.73 129.44,-74.39 120.94,-68.05 118.85,-74.73"/>
</a>
</g>
</g>
<!-- Node3 -->
<g id="Node000003" class="node">
<title>Node3</title>
<g id="a_Node000003"><a xlink:href="draw__interface_8c.html#a5b64deeee9cccbfca98154b87818c3ac" target="_top" xlink:title=" ">
<polygon fill="white" stroke="#666666" points="187.5,-56 131.5,-56 131.5,-37 187.5,-37 187.5,-56"/>
<text text-anchor="middle" x="159.5" y="-44" font-family="Helvetica,sans-Serif" font-size="10.00">init_grid</text>
</a>
</g>
</g>
<!-- Node1&#45;&gt;Node3 -->
<g id="edge2_Node000001_Node000003" class="edge">
<title>Node1&#45;&gt;Node3</title>
<g id="a_edge2_Node000001_Node000003"><a xlink:title=" ">
<path fill="none" stroke="#63b8ff" d="M79.14,-46.5C92.61,-46.5 107.69,-46.5 121.07,-46.5"/>
<polygon fill="#63b8ff" stroke="#63b8ff" points="121.36,-50 131.36,-46.5 121.36,-43 121.36,-50"/>
</a>
</g>
</g>
<!-- Node5 -->
<g id="Node000005" class="node">
<title>Node5</title>
<g id="a_Node000005"><a xlink:href="neural__net_8c.html#a77647026b9fe7266f3fd8dc75389f8c6" target="_top" xlink:title=" ">
<polygon fill="white" stroke="#666666" points="204,-19 115,-19 115,0 204,0 204,-19"/>
<text text-anchor="middle" x="159.5" y="-7" font-family="Helvetica,sans-Serif" font-size="10.00">init_neural_net</text>
</a>
</g>
</g>
<!-- Node1&#45;&gt;Node5 -->
<g id="edge4_Node000001_Node000005" class="edge">
<title>Node1&#45;&gt;Node5</title>
<g id="a_edge4_Node000001_Node000005"><a xlink:title=" ">
<path fill="none" stroke="#63b8ff" d="M70.89,-36.97C85.23,-32.48 102.54,-27.05 117.98,-22.2"/>
<polygon fill="#63b8ff" stroke="#63b8ff" points="119.31,-25.46 127.8,-19.12 117.22,-18.78 119.31,-25.46"/>
</a>
</g>
</g>
<!-- Node4 -->
<g id="Node000004" class="node">
<title>Node4</title>
<g id="a_Node000004"><a xlink:href="draw__interface_8c.html#a736c07e980bc72f3cb0e669a3b54635b" target="_top" xlink:title=" ">
<polygon fill="white" stroke="#666666" points="321,-56 252,-56 252,-37 321,-37 321,-56"/>
<text text-anchor="middle" x="286.5" y="-44" font-family="Helvetica,sans-Serif" font-size="10.00">reset_cells</text>
</a>
</g>
</g>
<!-- Node3&#45;&gt;Node4 -->
<g id="edge3_Node000003_Node000004" class="edge">
<title>Node3&#45;&gt;Node4</title>
<g id="a_edge3_Node000003_Node000004"><a xlink:title=" ">
<path fill="none" stroke="#63b8ff" d="M187.62,-46.5C203.42,-46.5 223.72,-46.5 241.73,-46.5"/>
<polygon fill="#63b8ff" stroke="#63b8ff" points="241.74,-50 251.74,-46.5 241.74,-43 241.74,-50"/>
</a>
</g>
</g>
<!-- Node6 -->
<g id="Node000006" class="node">
<title>Node6</title>
<g id="a_Node000006"><a xlink:href="neural__net_8c.html#ade20bb2d17f1ccd7a3df0e4ea1ccf255" target="_top" xlink:title=" ">
<polygon fill="white" stroke="#666666" points="333,-19 240,-19 240,0 333,0 333,-19"/>
<text text-anchor="middle" x="286.5" y="-7" font-family="Helvetica,sans-Serif" font-size="10.00">free_neural_net</text>
</a>
</g>
</g>
<!-- Node5&#45;&gt;Node6 -->
<g id="edge5_Node000005_Node000006" class="edge">
<title>Node5&#45;&gt;Node6</title>
<g id="a_edge5_Node000005_Node000006"><a xlink:title=" ">
<path fill="none" stroke="#63b8ff" d="M204.22,-9.5C212.43,-9.5 221.11,-9.5 229.63,-9.5"/>
<polygon fill="#63b8ff" stroke="#63b8ff" points="229.9,-13 239.9,-9.5 229.9,-6 229.9,-13"/>
</a>
</g>
</g>
</g>
</svg>
