<?xml version="1.0" encoding="UTF-8" standalone="no"?>
<!DOCTYPE svg PUBLIC "-//W3C//DTD SVG 1.1//EN"
 "http://www.w3.org/Graphics/SVG/1.1/DTD/svg11.dtd">
<!-- Generated by graphviz version 2.42.4 (0)
 -->
<!-- Title: process_digit_input Pages: 1 -->
<svg width="554pt" height="64pt"
 viewBox="0.00 0.00 554.00 64.00" xmlns="http://www.w3.org/2000/svg" xmlns:xlink="http://www.w3.org/1999/xlink">
<g id="graph0" class="graph" transform="scale(1 1) rotate(0) translate(4 60)">
<title>process_digit_input</title>
<!-- Node1 -->
<g id="Node000001" class="node">
<title>Node1</title>
<g id="a_Node000001"><a xlink:title=" ">
<polygon fill="#999999" stroke="#666666" points="111,-37 0,-37 0,-18 111,-18 111,-37"/>
<text text-anchor="middle" x="55.5" y="-25" font-family="Helvetica,sans-Serif" font-size="10.00">process_digit_input</text>
</a>
</g>
</g>
<!-- Node2 -->
<g id="Node000002" class="node">
<title>Node2</title>
<g id="a_Node000002"><a xlink:href="main_8c.html#a1c4840b45de140502290de0163a54697" target="_top" xlink:title=" ">
<polygon fill="white" stroke="#666666" points="255,-37 147,-37 147,-18 255,-18 255,-37"/>
<text text-anchor="middle" x="201" y="-25" font-family="Helvetica,sans-Serif" font-size="10.00">draw_digit_pattern</text>
</a>
</g>
</g>
<!-- Node1&#45;&gt;Node2 -->
<g id="edge1_Node000001_Node000002" class="edge">
<title>Node1&#45;&gt;Node2</title>
<g id="a_edge1_Node000001_Node000002"><a xlink:title=" ">
<path fill="none" stroke="#63b8ff" d="M111.16,-27.5C119.49,-27.5 128.15,-27.5 136.66,-27.5"/>
<polygon fill="#63b8ff" stroke="#63b8ff" points="136.91,-31 146.91,-27.5 136.91,-24 136.91,-31"/>
</a>
</g>
</g>
<!-- Node3 -->
<g id="Node000003" class="node">
<title>Node3</title>
<g id="a_Node000003"><a xlink:href="draw__interface_8c.html#a5d388b991a24af37be16f95b67b4a054" target="_top" xlink:title=" ">
<polygon fill="white" stroke="#666666" points="396.5,-56 331.5,-56 331.5,-37 396.5,-37 396.5,-56"/>
<text text-anchor="middle" x="364" y="-44" font-family="Helvetica,sans-Serif" font-size="10.00">clear_grid</text>
</a>
</g>
</g>
<!-- Node2&#45;&gt;Node3 -->
<g id="edge2_Node000002_Node000003" class="edge">
<title>Node2&#45;&gt;Node3</title>
<g id="a_edge2_Node000002_Node000003"><a xlink:title=" ">
<path fill="none" stroke="#63b8ff" d="M255.16,-33.77C276.53,-36.3 300.82,-39.16 320.93,-41.54"/>
<polygon fill="#63b8ff" stroke="#63b8ff" points="320.69,-45.03 331.03,-42.73 321.51,-38.08 320.69,-45.03"/>
</a>
</g>
</g>
<!-- Node5 -->
<g id="Node000005" class="node">
<title>Node5</title>
<g id="a_Node000005"><a xlink:href="main_8c.html#a989d26adde192591ed2d32ab926af1dc" target="_top" xlink:title=" ">
<polygon fill="white" stroke="#666666" points="437,-19 291,-19 291,0 437,0 437,-19"/>
<text text-anchor="middle" x="364" y="-7" font-family="Helvetica,sans-Serif" font-size="10.00">process_pattern_character</text>
</a>
</g>
</g>
<!-- Node2&#45;&gt;Node5 -->
<g id="edge4_Node000002_Node000005" class="edge">
<title>Node2&#45;&gt;Node5</title>
<g id="a_edge4_Node000002_Node000005"><a xlink:title=" ">
<path fill="none" stroke="#63b8ff" d="M255.16,-21.56C263.39,-20.64 272.05,-19.67 280.74,-18.7"/>
<polygon fill="#63b8ff" stroke="#63b8ff" points="281.38,-22.15 290.93,-17.56 280.6,-15.19 281.38,-22.15"/>
</a>
</g>
</g>
<!-- Node4 -->
<g id="Node000004" class="node">
<title>Node4</title>
<g id="a_Node000004"><a xlink:href="draw__interface_8c.html#a736c07e980bc72f3cb0e669a3b54635b" target="_top" xlink:title=" ">
<polygon fill="white" stroke="#666666" points="544,-56 475,-56 475,-37 544,-37 544,-56"/>
<text text-anchor="middle" x="509.5" y="-44" font-family="Helvetica,sans-Serif" font-size="10.00">reset_cells</text>
</a>
</g>
</g>
<!-- Node3&#45;&gt;Node4 -->
<g id="edge3_Node000003_Node000004" class="edge">
<title>Node3&#45;&gt;Node4</title>
<g id="a_edge3_Node000003_Node000004"><a xlink:title=" ">
<path fill="none" stroke="#63b8ff" d="M396.85,-46.5C416.88,-46.5 442.99,-46.5 464.93,-46.5"/>
<polygon fill="#63b8ff" stroke="#63b8ff" points="464.99,-50 474.99,-46.5 464.99,-43 464.99,-50"/>
</a>
</g>
</g>
<!-- Node6 -->
<g id="Node000006" class="node">
<title>Node6</title>
<g id="a_Node000006"><a xlink:href="main_8c.html#a6b0a41ade27197426a0d74dd7b13d20d" target="_top" xlink:title=" ">
<polygon fill="white" stroke="#666666" points="546,-19 473,-19 473,0 546,0 546,-19"/>
<text text-anchor="middle" x="509.5" y="-7" font-family="Helvetica,sans-Serif" font-size="10.00">update_cell</text>
</a>
</g>
</g>
<!-- Node5&#45;&gt;Node6 -->
<g id="edge5_Node000005_Node000006" class="edge">
<title>Node5&#45;&gt;Node6</title>
<g id="a_edge5_Node000005_Node000006"><a xlink:title=" ">
<path fill="none" stroke="#63b8ff" d="M437.17,-9.5C445.91,-9.5 454.63,-9.5 462.83,-9.5"/>
<polygon fill="#63b8ff" stroke="#63b8ff" points="462.9,-13 472.9,-9.5 462.9,-6 462.9,-13"/>
</a>
</g>
</g>
</g>
</svg>
