<?xml version="1.0" encoding="UTF-8" standalone="no"?>
<!DOCTYPE svg PUBLIC "-//W3C//DTD SVG 1.1//EN"
 "http://www.w3.org/Graphics/SVG/1.1/DTD/svg11.dtd">
<!-- Generated by graphviz version 2.42.4 (0)
 -->
<!-- Title: process_input Pages: 1 -->
<svg width="912pt" height="399pt"
 viewBox="0.00 0.00 912.00 399.00" xmlns="http://www.w3.org/2000/svg" xmlns:xlink="http://www.w3.org/1999/xlink">
<g id="graph0" class="graph" transform="scale(1 1) rotate(0) translate(4 395)">
<title>process_input</title>
<!-- Node1 -->
<g id="Node000001" class="node">
<title>Node1</title>
<g id="a_Node000001"><a xlink:title=" ">
<polygon fill="#999999" stroke="#666666" points="84,-334 0,-334 0,-315 84,-315 84,-334"/>
<text text-anchor="middle" x="42" y="-322" font-family="Helvetica,sans-Serif" font-size="10.00">process_input</text>
</a>
</g>
</g>
<!-- Node2 -->
<g id="Node000002" class="node">
<title>Node2</title>
<g id="a_Node000002"><a xlink:href="draw__interface_8c.html#a5d388b991a24af37be16f95b67b4a054" target="_top" xlink:title=" ">
<polygon fill="white" stroke="#666666" points="543.5,-391 478.5,-391 478.5,-372 543.5,-372 543.5,-391"/>
<text text-anchor="middle" x="511" y="-379" font-family="Helvetica,sans-Serif" font-size="10.00">clear_grid</text>
</a>
</g>
</g>
<!-- Node1&#45;&gt;Node2 -->
<g id="edge1_Node000001_Node000002" class="edge">
<title>Node1&#45;&gt;Node2</title>
<g id="a_edge1_Node000001_Node000002"><a xlink:title=" ">
<path fill="none" stroke="#63b8ff" d="M57.9,-334.17C72.91,-343.34 97.06,-356.55 120,-362.5 243.37,-394.47 395.88,-389.73 468.18,-384.96"/>
<polygon fill="#63b8ff" stroke="#63b8ff" points="468.53,-388.44 478.26,-384.26 468.04,-381.46 468.53,-388.44"/>
</a>
</g>
</g>
<!-- Node4 -->
<g id="Node000004" class="node">
<title>Node4</title>
<g id="a_Node000004"><a xlink:href="main_8c.html#aba2e57f6612dd678b1dfdad86707577c" target="_top" xlink:title=" ">
<polygon fill="white" stroke="#666666" points="238,-353 127,-353 127,-334 238,-334 238,-353"/>
<text text-anchor="middle" x="182.5" y="-341" font-family="Helvetica,sans-Serif" font-size="10.00">process_digit_input</text>
</a>
</g>
</g>
<!-- Node1&#45;&gt;Node4 -->
<g id="edge3_Node000001_Node000004" class="edge">
<title>Node1&#45;&gt;Node4</title>
<g id="a_edge3_Node000001_Node000004"><a xlink:title=" ">
<path fill="none" stroke="#63b8ff" d="M84.18,-330.15C94.44,-331.56 105.68,-333.1 116.77,-334.62"/>
<polygon fill="#63b8ff" stroke="#63b8ff" points="116.5,-338.12 126.88,-336.01 117.45,-331.18 116.5,-338.12"/>
</a>
</g>
</g>
<!-- Node8 -->
<g id="Node000008" class="node">
<title>Node8</title>
<g id="a_Node000008"><a xlink:href="main_8c.html#a66b7ffbb86aeea785d37a6ba05ac5f7b" target="_top" xlink:title=" ">
<polygon fill="white" stroke="#666666" points="245,-316 120,-316 120,-297 245,-297 245,-316"/>
<text text-anchor="middle" x="182.5" y="-304" font-family="Helvetica,sans-Serif" font-size="10.00">process_mouse_event</text>
</a>
</g>
</g>
<!-- Node1&#45;&gt;Node8 -->
<g id="edge8_Node000001_Node000008" class="edge">
<title>Node1&#45;&gt;Node8</title>
<g id="a_edge8_Node000001_Node000008"><a xlink:title=" ">
<path fill="none" stroke="#63b8ff" d="M84.18,-319.15C92.35,-318.09 101.14,-316.94 109.99,-315.79"/>
<polygon fill="#63b8ff" stroke="#63b8ff" points="110.5,-319.26 119.97,-314.5 109.6,-312.32 110.5,-319.26"/>
</a>
</g>
</g>
<!-- Node13 -->
<g id="Node000013" class="node">
<title>Node13</title>
<g id="a_Node000013"><a xlink:href="main_8c.html#adb502cacdfc84780232699fbf4743ca3" target="_top" xlink:title=" ">
<polygon fill="white" stroke="#666666" points="240,-223 125,-223 125,-204 240,-204 240,-223"/>
<text text-anchor="middle" x="182.5" y="-211" font-family="Helvetica,sans-Serif" font-size="10.00">process_submission</text>
</a>
</g>
</g>
<!-- Node1&#45;&gt;Node13 -->
<g id="edge14_Node000001_Node000013" class="edge">
<title>Node1&#45;&gt;Node13</title>
<g id="a_edge14_Node000001_Node000013"><a xlink:title=" ">
<path fill="none" stroke="#63b8ff" d="M55.29,-314.65C79.27,-295.43 132.5,-252.77 161.58,-229.47"/>
<polygon fill="#63b8ff" stroke="#63b8ff" points="163.82,-232.15 169.43,-223.17 159.44,-226.69 163.82,-232.15"/>
</a>
</g>
</g>
<!-- Node3 -->
<g id="Node000003" class="node">
<title>Node3</title>
<g id="a_Node000003"><a xlink:href="draw__interface_8c.html#a736c07e980bc72f3cb0e669a3b54635b" target="_top" xlink:title=" ">
<polygon fill="white" stroke="#666666" points="729.5,-391 660.5,-391 660.5,-372 729.5,-372 729.5,-391"/>
<text text-anchor="middle" x="695" y="-379" font-family="Helvetica,sans-Serif" font-size="10.00">reset_cells</text>
</a>
</g>
</g>
<!-- Node2&#45;&gt;Node3 -->
<g id="edge2_Node000002_Node000003" class="edge">
<title>Node2&#45;&gt;Node3</title>
<g id="a_edge2_Node000002_Node000003"><a xlink:title=" ">
<path fill="none" stroke="#63b8ff" d="M543.7,-381.5C573.11,-381.5 617.15,-381.5 649.97,-381.5"/>
<polygon fill="#63b8ff" stroke="#63b8ff" points="650.19,-385 660.19,-381.5 650.19,-378 650.19,-385"/>
</a>
</g>
</g>
<!-- Node5 -->
<g id="Node000005" class="node">
<title>Node5</title>
<g id="a_Node000005"><a xlink:href="main_8c.html#a1c4840b45de140502290de0163a54697" target="_top" xlink:title=" ">
<polygon fill="white" stroke="#666666" points="395.5,-353 287.5,-353 287.5,-334 395.5,-334 395.5,-353"/>
<text text-anchor="middle" x="341.5" y="-341" font-family="Helvetica,sans-Serif" font-size="10.00">draw_digit_pattern</text>
</a>
</g>
</g>
<!-- Node4&#45;&gt;Node5 -->
<g id="edge4_Node000004_Node000005" class="edge">
<title>Node4&#45;&gt;Node5</title>
<g id="a_edge4_Node000004_Node000005"><a xlink:title=" ">
<path fill="none" stroke="#63b8ff" d="M238.41,-343.5C250.97,-343.5 264.42,-343.5 277.29,-343.5"/>
<polygon fill="#63b8ff" stroke="#63b8ff" points="277.47,-347 287.47,-343.5 277.47,-340 277.47,-347"/>
</a>
</g>
</g>
<!-- Node5&#45;&gt;Node2 -->
<g id="edge5_Node000005_Node000002" class="edge">
<title>Node5&#45;&gt;Node2</title>
<g id="a_edge5_Node000005_Node000002"><a xlink:title=" ">
<path fill="none" stroke="#63b8ff" d="M384.77,-353.09C410.32,-358.89 442.77,-366.25 468.23,-372.02"/>
<polygon fill="#63b8ff" stroke="#63b8ff" points="467.8,-375.51 478.32,-374.31 469.34,-368.69 467.8,-375.51"/>
</a>
</g>
</g>
<!-- Node6 -->
<g id="Node000006" class="node">
<title>Node6</title>
<g id="a_Node000006"><a xlink:href="main_8c.html#a989d26adde192591ed2d32ab926af1dc" target="_top" xlink:title=" ">
<polygon fill="white" stroke="#666666" points="584,-354 438,-354 438,-335 584,-335 584,-354"/>
<text text-anchor="middle" x="511" y="-342" font-family="Helvetica,sans-Serif" font-size="10.00">process_pattern_character</text>
</a>
</g>
</g>
<!-- Node5&#45;&gt;Node6 -->
<g id="edge6_Node000005_Node000006" class="edge">
<title>Node5&#45;&gt;Node6</title>
<g id="a_edge6_Node000005_Node000006"><a xlink:title=" ">
<path fill="none" stroke="#63b8ff" d="M395.96,-343.82C406.04,-343.88 416.81,-343.94 427.54,-344.01"/>
<polygon fill="#63b8ff" stroke="#63b8ff" points="427.78,-347.51 437.8,-344.07 427.82,-340.51 427.78,-347.51"/>
</a>
</g>
</g>
<!-- Node7 -->
<g id="Node000007" class="node">
<title>Node7</title>
<g id="a_Node000007"><a xlink:href="main_8c.html#a6b0a41ade27197426a0d74dd7b13d20d" target="_top" xlink:title=" ">
<polygon fill="white" stroke="#666666" points="731.5,-354 658.5,-354 658.5,-335 731.5,-335 731.5,-354"/>
<text text-anchor="middle" x="695" y="-342" font-family="Helvetica,sans-Serif" font-size="10.00">update_cell</text>
</a>
</g>
</g>
<!-- Node6&#45;&gt;Node7 -->
<g id="edge7_Node000006_Node000007" class="edge">
<title>Node6&#45;&gt;Node7</title>
<g id="a_edge7_Node000006_Node000007"><a xlink:title=" ">
<path fill="none" stroke="#63b8ff" d="M584.19,-344.5C605.73,-344.5 628.73,-344.5 648.1,-344.5"/>
<polygon fill="#63b8ff" stroke="#63b8ff" points="648.15,-348 658.15,-344.5 648.15,-341 648.15,-348"/>
</a>
</g>
</g>
<!-- Node9 -->
<g id="Node000009" class="node">
<title>Node9</title>
<g id="a_Node000009"><a xlink:href="draw__interface_8c.html#a1d78a5537da73e9e0c1c46ff57670bcb" target="_top" xlink:title=" ">
<polygon fill="white" stroke="#666666" points="402,-316 281,-316 281,-297 402,-297 402,-316"/>
<text text-anchor="middle" x="341.5" y="-304" font-family="Helvetica,sans-Serif" font-size="10.00">handle_mouse_event</text>
</a>
</g>
</g>
<!-- Node8&#45;&gt;Node9 -->
<g id="edge9_Node000008_Node000009" class="edge">
<title>Node8&#45;&gt;Node9</title>
<g id="a_edge9_Node000008_Node000009"><a xlink:title=" ">
<path fill="none" stroke="#63b8ff" d="M245.1,-306.5C253.47,-306.5 262.1,-306.5 270.6,-306.5"/>
<polygon fill="#63b8ff" stroke="#63b8ff" points="270.88,-310 280.88,-306.5 270.88,-303 270.88,-310"/>
</a>
</g>
</g>
<!-- Node10 -->
<g id="Node000010" class="node">
<title>Node10</title>
<g id="a_Node000010"><a xlink:href="draw__interface_8c.html#ae89db5b75abff68dc9c10bf87370036e" target="_top" xlink:title=" ">
<polygon fill="white" stroke="#666666" points="543,-317 479,-317 479,-298 543,-298 543,-317"/>
<text text-anchor="middle" x="511" y="-305" font-family="Helvetica,sans-Serif" font-size="10.00">draw_line</text>
</a>
</g>
</g>
<!-- Node9&#45;&gt;Node10 -->
<g id="edge10_Node000009_Node000010" class="edge">
<title>Node9&#45;&gt;Node10</title>
<g id="a_edge10_Node000009_Node000010"><a xlink:title=" ">
<path fill="none" stroke="#63b8ff" d="M402.03,-306.86C424.13,-306.99 448.69,-307.13 468.8,-307.25"/>
<polygon fill="#63b8ff" stroke="#63b8ff" points="468.85,-310.75 478.87,-307.31 468.89,-303.75 468.85,-310.75"/>
</a>
</g>
</g>
<!-- Node12 -->
<g id="Node000012" class="node">
<title>Node12</title>
<g id="a_Node000012"><a xlink:href="draw__interface_8c.html#ae33641352570bac2c068f9a8b0a65bf4" target="_top" xlink:title=" ">
<polygon fill="white" stroke="#666666" points="904,-298 806,-298 806,-279 904,-279 904,-298"/>
<text text-anchor="middle" x="855" y="-286" font-family="Helvetica,sans-Serif" font-size="10.00">is_valid_position</text>
</a>
</g>
</g>
<!-- Node9&#45;&gt;Node12 -->
<g id="edge13_Node000009_Node000012" class="edge">
<title>Node9&#45;&gt;Node12</title>
<g id="a_edge13_Node000009_Node000012"><a xlink:title=" ">
<path fill="none" stroke="#63b8ff" d="M386.98,-296.93C402.99,-293.92 421.23,-291 438,-289.5 565.02,-278.13 714.72,-281.97 795.39,-285.45"/>
<polygon fill="#63b8ff" stroke="#63b8ff" points="795.69,-288.96 805.83,-285.91 796,-281.97 795.69,-288.96"/>
</a>
</g>
</g>
<!-- Node11 -->
<g id="Node000011" class="node">
<title>Node11</title>
<g id="a_Node000011"><a xlink:href="draw__interface_8c.html#a4c078eca06d8f6d2b73be94479346a81" target="_top" xlink:title=" ">
<polygon fill="white" stroke="#666666" points="770,-317 620,-317 620,-298 770,-298 770,-317"/>
<text text-anchor="middle" x="695" y="-305" font-family="Helvetica,sans-Serif" font-size="10.00">draw_point_with_neighbors</text>
</a>
</g>
</g>
<!-- Node10&#45;&gt;Node11 -->
<g id="edge11_Node000010_Node000011" class="edge">
<title>Node10&#45;&gt;Node11</title>
<g id="a_edge11_Node000010_Node000011"><a xlink:title=" ">
<path fill="none" stroke="#63b8ff" d="M543.29,-307.5C561.7,-307.5 585.94,-307.5 609.59,-307.5"/>
<polygon fill="#63b8ff" stroke="#63b8ff" points="609.67,-311 619.67,-307.5 609.67,-304 609.67,-311"/>
</a>
</g>
</g>
<!-- Node11&#45;&gt;Node12 -->
<g id="edge12_Node000011_Node000012" class="edge">
<title>Node11&#45;&gt;Node12</title>
<g id="a_edge12_Node000011_Node000012"><a xlink:title=" ">
<path fill="none" stroke="#63b8ff" d="M770.37,-298.56C778.82,-297.54 787.33,-296.52 795.52,-295.53"/>
<polygon fill="#63b8ff" stroke="#63b8ff" points="796.2,-298.98 805.71,-294.31 795.36,-292.03 796.2,-298.98"/>
</a>
</g>
</g>
<!-- Node14 -->
<g id="Node000014" class="node">
<title>Node14</title>
<g id="a_Node000014"><a xlink:href="neural__net_8c.html#a643bfaff68b9c9e918e24459d2d8add3" target="_top" xlink:title=" ">
<polygon fill="white" stroke="#666666" points="382.5,-241 300.5,-241 300.5,-222 382.5,-222 382.5,-241"/>
<text text-anchor="middle" x="341.5" y="-229" font-family="Helvetica,sans-Serif" font-size="10.00">forward_pass</text>
</a>
</g>
</g>
<!-- Node13&#45;&gt;Node14 -->
<g id="edge15_Node000013_Node000014" class="edge">
<title>Node13&#45;&gt;Node14</title>
<g id="a_edge15_Node000013_Node000014"><a xlink:title=" ">
<path fill="none" stroke="#63b8ff" d="M240.18,-220C256.46,-221.87 274.11,-223.89 289.99,-225.71"/>
<polygon fill="#63b8ff" stroke="#63b8ff" points="289.81,-229.21 300.15,-226.87 290.61,-222.26 289.81,-229.21"/>
</a>
</g>
</g>
<!-- Node16 -->
<g id="Node000016" class="node">
<title>Node16</title>
<g id="a_Node000016"><a xlink:href="neural__net_8c.html#a8089dd9aaff49a3011d1b83dffef64c0" target="_top" xlink:title=" ">
<polygon fill="white" stroke="#666666" points="384.5,-204 298.5,-204 298.5,-185 384.5,-185 384.5,-204"/>
<text text-anchor="middle" x="341.5" y="-192" font-family="Helvetica,sans-Serif" font-size="10.00">get_prediction</text>
</a>
</g>
</g>
<!-- Node13&#45;&gt;Node16 -->
<g id="edge17_Node000013_Node000016" class="edge">
<title>Node13&#45;&gt;Node16</title>
<g id="a_edge17_Node000013_Node000016"><a xlink:title=" ">
<path fill="none" stroke="#63b8ff" d="M240.18,-206.64C255.74,-204.76 272.54,-202.72 287.86,-200.87"/>
<polygon fill="#63b8ff" stroke="#63b8ff" points="288.69,-204.3 298.19,-199.62 287.85,-197.35 288.69,-204.3"/>
</a>
</g>
</g>
<!-- Node17 -->
<g id="Node000017" class="node">
<title>Node17</title>
<g id="a_Node000017"><a xlink:href="utils_8c.html#a114718dee67e7bc50138626116a67535" target="_top" xlink:title=" ">
<polygon fill="white" stroke="#666666" points="388.5,-130 294.5,-130 294.5,-111 388.5,-111 388.5,-130"/>
<text text-anchor="middle" x="341.5" y="-118" font-family="Helvetica,sans-Serif" font-size="10.00">preprocess_grid</text>
</a>
</g>
</g>
<!-- Node13&#45;&gt;Node17 -->
<g id="edge18_Node000013_Node000017" class="edge">
<title>Node13&#45;&gt;Node17</title>
<g id="a_edge18_Node000013_Node000017"><a xlink:title=" ">
<path fill="none" stroke="#63b8ff" d="M199.71,-203.9C227.09,-187.68 282.69,-154.74 315.23,-135.47"/>
<polygon fill="#63b8ff" stroke="#63b8ff" points="317.32,-138.3 324.14,-130.19 313.75,-132.27 317.32,-138.3"/>
</a>
</g>
</g>
<!-- Node15 -->
<g id="Node000015" class="node">
<title>Node15</title>
<g id="a_Node000015"><a xlink:href="neural__net_8c.html#ad4ca22dfbd464dd7fb67dc23234146e3" target="_top" xlink:title=" ">
<polygon fill="white" stroke="#666666" points="528.5,-241 493.5,-241 493.5,-222 528.5,-222 528.5,-241"/>
<text text-anchor="middle" x="511" y="-229" font-family="Helvetica,sans-Serif" font-size="10.00">relu</text>
</a>
</g>
</g>
<!-- Node14&#45;&gt;Node15 -->
<g id="edge16_Node000014_Node000015" class="edge">
<title>Node14&#45;&gt;Node15</title>
<g id="a_edge16_Node000014_Node000015"><a xlink:title=" ">
<path fill="none" stroke="#63b8ff" d="M382.62,-231.5C413.75,-231.5 456.05,-231.5 483.19,-231.5"/>
<polygon fill="#63b8ff" stroke="#63b8ff" points="483.48,-235 493.48,-231.5 483.48,-228 483.48,-235"/>
</a>
</g>
</g>
<!-- Node18 -->
<g id="Node000018" class="node">
<title>Node18</title>
<g id="a_Node000018"><a xlink:href="utils_8c.html#a8b8c5ef5eb34311a44afb0dca3515a62" target="_top" xlink:title=" ">
<polygon fill="white" stroke="#666666" points="567,-204 455,-204 455,-185 567,-185 567,-204"/>
<text text-anchor="middle" x="511" y="-192" font-family="Helvetica,sans-Serif" font-size="10.00">bilinear_interpolate</text>
</a>
</g>
</g>
<!-- Node17&#45;&gt;Node18 -->
<g id="edge19_Node000017_Node000018" class="edge">
<title>Node17&#45;&gt;Node18</title>
<g id="a_edge19_Node000017_Node000018"><a xlink:title=" ">
<path fill="none" stroke="#63b8ff" d="M356.09,-130.16C374.05,-142.53 407.04,-163.86 438,-176.5 443.07,-178.57 448.44,-180.45 453.87,-182.14"/>
<polygon fill="#63b8ff" stroke="#63b8ff" points="453.09,-185.56 463.67,-184.99 455.04,-178.84 453.09,-185.56"/>
</a>
</g>
</g>
<!-- Node19 -->
<g id="Node000019" class="node">
<title>Node19</title>
<g id="a_Node000019"><a xlink:href="utils_8c.html#a322c51e33866a7d367c227275f96bcc9" target="_top" xlink:title=" ">
<polygon fill="white" stroke="#666666" points="572,-167 450,-167 450,-148 572,-148 572,-167"/>
<text text-anchor="middle" x="511" y="-155" font-family="Helvetica,sans-Serif" font-size="10.00">calculate_dimensions</text>
</a>
</g>
</g>
<!-- Node17&#45;&gt;Node19 -->
<g id="edge20_Node000017_Node000019" class="edge">
<title>Node17&#45;&gt;Node19</title>
<g id="a_edge20_Node000017_Node000019"><a xlink:title=" ">
<path fill="none" stroke="#63b8ff" d="M385.64,-130.03C407.34,-134.82 433.84,-140.68 456.79,-145.75"/>
<polygon fill="#63b8ff" stroke="#63b8ff" points="456.2,-149.2 466.72,-147.94 457.71,-142.36 456.2,-149.2"/>
</a>
</g>
</g>
<!-- Node20 -->
<g id="Node000020" class="node">
<title>Node20</title>
<g id="a_Node000020"><a xlink:href="utils_8c.html#a18488a38ee9e1564b4f4498e23ffed95" target="_top" xlink:title=" ">
<polygon fill="white" stroke="#666666" points="560,-130 462,-130 462,-111 560,-111 560,-130"/>
<text text-anchor="middle" x="511" y="-118" font-family="Helvetica,sans-Serif" font-size="10.00">close_debug_log</text>
</a>
</g>
</g>
<!-- Node17&#45;&gt;Node20 -->
<g id="edge21_Node000017_Node000020" class="edge">
<title>Node17&#45;&gt;Node20</title>
<g id="a_edge21_Node000017_Node000020"><a xlink:title=" ">
<path fill="none" stroke="#63b8ff" d="M388.71,-120.5C408.18,-120.5 431.06,-120.5 451.67,-120.5"/>
<polygon fill="#63b8ff" stroke="#63b8ff" points="451.89,-124 461.89,-120.5 451.89,-117 451.89,-124"/>
</a>
</g>
</g>
<!-- Node21 -->
<g id="Node000021" class="node">
<title>Node21</title>
<g id="a_Node000021"><a xlink:href="utils_8c.html#a17a70dd5a0eb5cab8f04530af4573b19" target="_top" xlink:title=" ">
<polygon fill="white" stroke="#666666" points="560,-93 462,-93 462,-74 560,-74 560,-93"/>
<text text-anchor="middle" x="511" y="-81" font-family="Helvetica,sans-Serif" font-size="10.00">debug_print_grid</text>
</a>
</g>
</g>
<!-- Node17&#45;&gt;Node21 -->
<g id="edge22_Node000017_Node000021" class="edge">
<title>Node17&#45;&gt;Node21</title>
<g id="a_edge22_Node000017_Node000021"><a xlink:title=" ">
<path fill="none" stroke="#63b8ff" d="M385.64,-110.97C407.34,-106.18 433.84,-100.32 456.79,-95.25"/>
<polygon fill="#63b8ff" stroke="#63b8ff" points="457.71,-98.64 466.72,-93.06 456.2,-91.8 457.71,-98.64"/>
</a>
</g>
</g>
<!-- Node22 -->
<g id="Node000022" class="node">
<title>Node22</title>
<g id="a_Node000022"><a xlink:href="utils_8c.html#a73e441f626659500174c898e56f181be" target="_top" xlink:title=" ">
<polygon fill="white" stroke="#666666" points="560.5,-56 461.5,-56 461.5,-37 560.5,-37 560.5,-56"/>
<text text-anchor="middle" x="511" y="-44" font-family="Helvetica,sans-Serif" font-size="10.00">find_grid_bounds</text>
</a>
</g>
</g>
<!-- Node17&#45;&gt;Node22 -->
<g id="edge23_Node000017_Node000022" class="edge">
<title>Node17&#45;&gt;Node22</title>
<g id="a_edge23_Node000017_Node000022"><a xlink:title=" ">
<path fill="none" stroke="#63b8ff" d="M356.09,-110.84C374.05,-98.47 407.04,-77.14 438,-64.5 443.07,-62.43 448.44,-60.55 453.87,-58.86"/>
<polygon fill="#63b8ff" stroke="#63b8ff" points="455.04,-62.16 463.67,-56.01 453.09,-55.44 455.04,-62.16"/>
</a>
</g>
</g>
<!-- Node23 -->
<g id="Node000023" class="node">
<title>Node23</title>
<g id="a_Node000023"><a xlink:href="utils_8c.html#a0677da37b66afc30330b446d9ec75380" target="_top" xlink:title=" ">
<polygon fill="white" stroke="#666666" points="559,-19 463,-19 463,0 559,0 559,-19"/>
<text text-anchor="middle" x="511" y="-7" font-family="Helvetica,sans-Serif" font-size="10.00">open_debug_log</text>
</a>
</g>
</g>
<!-- Node17&#45;&gt;Node23 -->
<g id="edge24_Node000017_Node000023" class="edge">
<title>Node17&#45;&gt;Node23</title>
<g id="a_edge24_Node000017_Node000023"><a xlink:title=" ">
<path fill="none" stroke="#63b8ff" d="M349.47,-110.92C363.8,-91.93 398.58,-49.47 438,-27.5 442.78,-24.83 447.96,-22.56 453.27,-20.61"/>
<polygon fill="#63b8ff" stroke="#63b8ff" points="454.5,-23.89 462.92,-17.46 452.33,-17.24 454.5,-23.89"/>
</a>
</g>
</g>
</g>
</svg>
