<?xml version="1.0" encoding="UTF-8" standalone="no"?>
<!DOCTYPE svg PUBLIC "-//W3C//DTD SVG 1.1//EN"
 "http://www.w3.org/Graphics/SVG/1.1/DTD/svg11.dtd">
<!-- Generated by graphviz version 2.42.4 (0)
 -->
<!-- Title: draw_digit_pattern Pages: 1 -->
<svg width="407pt" height="64pt"
 viewBox="0.00 0.00 407.00 64.00" xmlns="http://www.w3.org/2000/svg" xmlns:xlink="http://www.w3.org/1999/xlink">
<g id="graph0" class="graph" transform="scale(1 1) rotate(0) translate(4 60)">
<title>draw_digit_pattern</title>
<!-- Node1 -->
<g id="Node000001" class="node">
<title>Node1</title>
<g id="a_Node000001"><a xlink:title=" ">
<polygon fill="#999999" stroke="#666666" points="108,-37 0,-37 0,-18 108,-18 108,-37"/>
<text text-anchor="middle" x="54" y="-25" font-family="Helvetica,sans-Serif" font-size="10.00">draw_digit_pattern</text>
</a>
</g>
</g>
<!-- Node2 -->
<g id="Node000002" class="node">
<title>Node2</title>
<g id="a_Node000002"><a xlink:href="draw__interface_8c.html#a5d388b991a24af37be16f95b67b4a054" target="_top" xlink:title=" ">
<polygon fill="white" stroke="#666666" points="249.5,-56 184.5,-56 184.5,-37 249.5,-37 249.5,-56"/>
<text text-anchor="middle" x="217" y="-44" font-family="Helvetica,sans-Serif" font-size="10.00">clear_grid</text>
</a>
</g>
</g>
<!-- Node1&#45;&gt;Node2 -->
<g id="edge1_Node000001_Node000002" class="edge">
<title>Node1&#45;&gt;Node2</title>
<g id="a_edge1_Node000001_Node000002"><a xlink:title=" ">
<path fill="none" stroke="#63b8ff" d="M108.16,-33.77C129.53,-36.3 153.82,-39.16 173.93,-41.54"/>
<polygon fill="#63b8ff" stroke="#63b8ff" points="173.69,-45.03 184.03,-42.73 174.51,-38.08 173.69,-45.03"/>
</a>
</g>
</g>
<!-- Node4 -->
<g id="Node000004" class="node">
<title>Node4</title>
<g id="a_Node000004"><a xlink:href="main_8c.html#a989d26adde192591ed2d32ab926af1dc" target="_top" xlink:title=" ">
<polygon fill="white" stroke="#666666" points="290,-19 144,-19 144,0 290,0 290,-19"/>
<text text-anchor="middle" x="217" y="-7" font-family="Helvetica,sans-Serif" font-size="10.00">process_pattern_character</text>
</a>
</g>
</g>
<!-- Node1&#45;&gt;Node4 -->
<g id="edge3_Node000001_Node000004" class="edge">
<title>Node1&#45;&gt;Node4</title>
<g id="a_edge3_Node000001_Node000004"><a xlink:title=" ">
<path fill="none" stroke="#63b8ff" d="M108.16,-21.56C116.39,-20.64 125.05,-19.67 133.74,-18.7"/>
<polygon fill="#63b8ff" stroke="#63b8ff" points="134.38,-22.15 143.93,-17.56 133.6,-15.19 134.38,-22.15"/>
</a>
</g>
</g>
<!-- Node3 -->
<g id="Node000003" class="node">
<title>Node3</title>
<g id="a_Node000003"><a xlink:href="draw__interface_8c.html#a736c07e980bc72f3cb0e669a3b54635b" target="_top" xlink:title=" ">
<polygon fill="white" stroke="#666666" points="397,-56 328,-56 328,-37 397,-37 397,-56"/>
<text text-anchor="middle" x="362.5" y="-44" font-family="Helvetica,sans-Serif" font-size="10.00">reset_cells</text>
</a>
</g>
</g>
<!-- Node2&#45;&gt;Node3 -->
<g id="edge2_Node000002_Node000003" class="edge">
<title>Node2&#45;&gt;Node3</title>
<g id="a_edge2_Node000002_Node000003"><a xlink:title=" ">
<path fill="none" stroke="#63b8ff" d="M249.85,-46.5C269.88,-46.5 295.99,-46.5 317.93,-46.5"/>
<polygon fill="#63b8ff" stroke="#63b8ff" points="317.99,-50 327.99,-46.5 317.99,-43 317.99,-50"/>
</a>
</g>
</g>
<!-- Node5 -->
<g id="Node000005" class="node">
<title>Node5</title>
<g id="a_Node000005"><a xlink:href="main_8c.html#a6b0a41ade27197426a0d74dd7b13d20d" target="_top" xlink:title=" ">
<polygon fill="white" stroke="#666666" points="399,-19 326,-19 326,0 399,0 399,-19"/>
<text text-anchor="middle" x="362.5" y="-7" font-family="Helvetica,sans-Serif" font-size="10.00">update_cell</text>
</a>
</g>
</g>
<!-- Node4&#45;&gt;Node5 -->
<g id="edge4_Node000004_Node000005" class="edge">
<title>Node4&#45;&gt;Node5</title>
<g id="a_edge4_Node000004_Node000005"><a xlink:title=" ">
<path fill="none" stroke="#63b8ff" d="M290.17,-9.5C298.91,-9.5 307.63,-9.5 315.83,-9.5"/>
<polygon fill="#63b8ff" stroke="#63b8ff" points="315.9,-13 325.9,-9.5 315.9,-6 315.9,-13"/>
</a>
</g>
</g>
</g>
</svg>
