<?xml version="1.0" encoding="UTF-8" standalone="no"?>
<!DOCTYPE svg PUBLIC "-//W3C//DTD SVG 1.1//EN"
 "http://www.w3.org/Graphics/SVG/1.1/DTD/svg11.dtd">
<!-- Generated by graphviz version 2.42.4 (0)
 -->
<!-- Title: src/neural_net.c Pages: 1 -->
<svg width="551pt" height="137pt"
 viewBox="0.00 0.00 551.00 137.00" xmlns="http://www.w3.org/2000/svg" xmlns:xlink="http://www.w3.org/1999/xlink">
<g id="graph0" class="graph" transform="scale(1 1) rotate(0) translate(4 133)">
<title>src/neural_net.c</title>
<!-- Node1 -->
<g id="Node000001" class="node">
<title>Node1</title>
<g id="a_Node000001"><a xlink:title=" ">
<polygon fill="#999999" stroke="#666666" points="323.5,-129 229.5,-129 229.5,-110 323.5,-110 323.5,-129"/>
<text text-anchor="middle" x="276.5" y="-117" font-family="Helvetica,sans-Serif" font-size="10.00">src/neural_net.c</text>
</a>
</g>
</g>
<!-- Node2 -->
<g id="Node000002" class="node">
<title>Node2</title>
<g id="a_Node000002"><a xlink:title=" ">
<polygon fill="#e0e0e0" stroke="#999999" points="53,-74 0,-74 0,-55 53,-55 53,-74"/>
<text text-anchor="middle" x="26.5" y="-62" font-family="Helvetica,sans-Serif" font-size="10.00">stdlib.h</text>
</a>
</g>
</g>
<!-- Node1&#45;&gt;Node2 -->
<g id="edge1_Node000001_Node000002" class="edge">
<title>Node1&#45;&gt;Node2</title>
<g id="a_edge1_Node000001_Node000002"><a xlink:title=" ">
<path fill="none" stroke="#63b8ff" d="M233.79,-109.97C192.66,-101.68 128.43,-88.52 63.26,-74.12"/>
<polygon fill="#63b8ff" stroke="#63b8ff" points="63.74,-70.64 53.22,-71.89 62.22,-77.48 63.74,-70.64"/>
</a>
</g>
</g>
<!-- Node3 -->
<g id="Node000003" class="node">
<title>Node3</title>
<g id="a_Node000003"><a xlink:title=" ">
<polygon fill="#e0e0e0" stroke="#999999" points="122,-74 71,-74 71,-55 122,-55 122,-74"/>
<text text-anchor="middle" x="96.5" y="-62" font-family="Helvetica,sans-Serif" font-size="10.00">math.h</text>
</a>
</g>
</g>
<!-- Node1&#45;&gt;Node3 -->
<g id="edge2_Node000001_Node000003" class="edge">
<title>Node1&#45;&gt;Node3</title>
<g id="a_edge2_Node000001_Node000003"><a xlink:title=" ">
<path fill="none" stroke="#63b8ff" d="M247.58,-109.98C216.15,-100.73 165.9,-85.93 132.07,-75.97"/>
<polygon fill="#63b8ff" stroke="#63b8ff" points="132.72,-72.52 122.14,-73.05 130.75,-79.23 132.72,-72.52"/>
</a>
</g>
</g>
<!-- Node4 -->
<g id="Node000004" class="node">
<title>Node4</title>
<g id="a_Node000004"><a xlink:title=" ">
<polygon fill="#e0e0e0" stroke="#999999" points="190.5,-74 140.5,-74 140.5,-55 190.5,-55 190.5,-74"/>
<text text-anchor="middle" x="165.5" y="-62" font-family="Helvetica,sans-Serif" font-size="10.00">stdio.h</text>
</a>
</g>
</g>
<!-- Node1&#45;&gt;Node4 -->
<g id="edge3_Node000001_Node000004" class="edge">
<title>Node1&#45;&gt;Node4</title>
<g id="a_edge3_Node000001_Node000004"><a xlink:title=" ">
<path fill="none" stroke="#63b8ff" d="M258.67,-109.98C240.89,-101.5 213.35,-88.35 192.82,-78.54"/>
<polygon fill="#63b8ff" stroke="#63b8ff" points="194.19,-75.32 183.66,-74.17 191.17,-81.64 194.19,-75.32"/>
</a>
</g>
</g>
<!-- Node5 -->
<g id="Node000005" class="node">
<title>Node5</title>
<g id="a_Node000005"><a xlink:title=" ">
<polygon fill="#e0e0e0" stroke="#999999" points="262,-74 209,-74 209,-55 262,-55 262,-74"/>
<text text-anchor="middle" x="235.5" y="-62" font-family="Helvetica,sans-Serif" font-size="10.00">string.h</text>
</a>
</g>
</g>
<!-- Node1&#45;&gt;Node5 -->
<g id="edge4_Node000001_Node000005" class="edge">
<title>Node1&#45;&gt;Node5</title>
<g id="a_edge4_Node000001_Node000005"><a xlink:title=" ">
<path fill="none" stroke="#63b8ff" d="M269.73,-109.75C263.94,-102.26 255.44,-91.28 248.36,-82.13"/>
<polygon fill="#63b8ff" stroke="#63b8ff" points="251.03,-79.86 242.14,-74.09 245.49,-84.14 251.03,-79.86"/>
</a>
</g>
</g>
<!-- Node6 -->
<g id="Node000006" class="node">
<title>Node6</title>
<g id="a_Node000006"><a xlink:href="neural__net_8h.html" target="_top" xlink:title=" ">
<polygon fill="white" stroke="#666666" points="357,-74 280,-74 280,-55 357,-55 357,-74"/>
<text text-anchor="middle" x="318.5" y="-62" font-family="Helvetica,sans-Serif" font-size="10.00">neural_net.h</text>
</a>
</g>
</g>
<!-- Node1&#45;&gt;Node6 -->
<g id="edge5_Node000001_Node000006" class="edge">
<title>Node1&#45;&gt;Node6</title>
<g id="a_edge5_Node000001_Node000006"><a xlink:title=" ">
<path fill="none" stroke="#63b8ff" d="M283.44,-109.75C289.37,-102.26 298.07,-91.28 305.32,-82.13"/>
<polygon fill="#63b8ff" stroke="#63b8ff" points="308.23,-84.1 311.69,-74.09 302.74,-79.75 308.23,-84.1"/>
</a>
</g>
</g>
<!-- Node7 -->
<g id="Node000007" class="node">
<title>Node7</title>
<g id="a_Node000007"><a xlink:href="draw__interface_8h.html" target="_top" xlink:title=" ">
<polygon fill="white" stroke="#666666" points="434.5,-19 336.5,-19 336.5,0 434.5,0 434.5,-19"/>
<text text-anchor="middle" x="385.5" y="-7" font-family="Helvetica,sans-Serif" font-size="10.00">draw_interface.h</text>
</a>
</g>
</g>
<!-- Node1&#45;&gt;Node7 -->
<g id="edge8_Node000001_Node000007" class="edge">
<title>Node1&#45;&gt;Node7</title>
<g id="a_edge8_Node000001_Node000007"><a xlink:title=" ">
<path fill="none" stroke="#63b8ff" d="M308.07,-109.97C327.48,-103.2 351.43,-91.85 366.5,-74 377.06,-61.5 381.75,-43.29 383.83,-29.58"/>
<polygon fill="#63b8ff" stroke="#63b8ff" points="387.34,-29.68 385.04,-19.34 380.39,-28.86 387.34,-29.68"/>
</a>
</g>
</g>
<!-- Node8 -->
<g id="Node000008" class="node">
<title>Node8</title>
<g id="a_Node000008"><a xlink:href="weights_8h.html" target="_top" xlink:title=" ">
<polygon fill="white" stroke="#666666" points="477.5,-74 413.5,-74 413.5,-55 477.5,-55 477.5,-74"/>
<text text-anchor="middle" x="445.5" y="-62" font-family="Helvetica,sans-Serif" font-size="10.00">weights.h</text>
</a>
</g>
</g>
<!-- Node1&#45;&gt;Node8 -->
<g id="edge7_Node000001_Node000008" class="edge">
<title>Node1&#45;&gt;Node8</title>
<g id="a_edge7_Node000001_Node000008"><a xlink:title=" ">
<path fill="none" stroke="#63b8ff" d="M303.65,-109.98C332.03,-101.09 376.73,-87.07 408.36,-77.15"/>
<polygon fill="#63b8ff" stroke="#63b8ff" points="409.64,-80.41 418.13,-74.08 407.55,-73.73 409.64,-80.41"/>
</a>
</g>
</g>
<!-- Node9 -->
<g id="Node000009" class="node">
<title>Node9</title>
<g id="a_Node000009"><a xlink:href="utils_8h.html" target="_top" xlink:title=" ">
<polygon fill="white" stroke="#666666" points="543,-74 496,-74 496,-55 543,-55 543,-74"/>
<text text-anchor="middle" x="519.5" y="-62" font-family="Helvetica,sans-Serif" font-size="10.00">utils.h</text>
</a>
</g>
</g>
<!-- Node1&#45;&gt;Node9 -->
<g id="edge9_Node000001_Node000009" class="edge">
<title>Node1&#45;&gt;Node9</title>
<g id="a_edge9_Node000001_Node000009"><a xlink:title=" ">
<path fill="none" stroke="#63b8ff" d="M319.66,-109.92C360.12,-101.76 422.53,-88.83 485.96,-74.04"/>
<polygon fill="#63b8ff" stroke="#63b8ff" points="486.8,-77.44 495.74,-71.75 485.2,-70.63 486.8,-77.44"/>
</a>
</g>
</g>
<!-- Node6&#45;&gt;Node7 -->
<g id="edge6_Node000006_Node000007" class="edge">
<title>Node6&#45;&gt;Node7</title>
<g id="a_edge6_Node000006_Node000007"><a xlink:title=" ">
<path fill="none" stroke="#63b8ff" d="M329.26,-54.98C339.27,-47.07 354.39,-35.11 366.43,-25.58"/>
<polygon fill="#63b8ff" stroke="#63b8ff" points="368.87,-28.12 374.54,-19.17 364.53,-22.63 368.87,-28.12"/>
</a>
</g>
</g>
<!-- Node9&#45;&gt;Node7 -->
<g id="edge10_Node000009_Node000007" class="edge">
<title>Node9&#45;&gt;Node7</title>
<g id="a_edge10_Node000009_Node000007"><a xlink:title=" ">
<path fill="none" stroke="#63b8ff" d="M497.97,-54.98C476.03,-46.3 441.76,-32.75 416.81,-22.88"/>
<polygon fill="#63b8ff" stroke="#63b8ff" points="418.01,-19.59 407.42,-19.17 415.43,-26.1 418.01,-19.59"/>
</a>
</g>
</g>
</g>
</svg>
