<?xml version="1.0" encoding="UTF-8" standalone="no"?>
<!DOCTYPE svg PUBLIC "-//W3C//DTD SVG 1.1//EN"
 "http://www.w3.org/Graphics/SVG/1.1/DTD/svg11.dtd">
<!-- Generated by graphviz version 2.42.4 (0)
 -->
<!-- Title: train_network Pages: 1 -->
<svg width="387pt" height="249pt"
 viewBox="0.00 0.00 387.00 249.00" xmlns="http://www.w3.org/2000/svg" xmlns:xlink="http://www.w3.org/1999/xlink">
<g id="graph0" class="graph" transform="scale(1 1) rotate(0) translate(4 245)">
<title>train_network</title>
<!-- Node1 -->
<g id="Node000001" class="node">
<title>Node1</title>
<g id="a_Node000001"><a xlink:title=" ">
<polygon fill="#999999" stroke="#666666" points="84,-130 0,-130 0,-111 84,-111 84,-130"/>
<text text-anchor="middle" x="42" y="-118" font-family="Helvetica,sans-Serif" font-size="10.00">train_network</text>
</a>
</g>
</g>
<!-- Node2 -->
<g id="Node000002" class="node">
<title>Node2</title>
<g id="a_Node000002"><a xlink:href="train_8c.html#a062e67a2fff70756a17088d2582d8336" target="_top" xlink:title=" ">
<polygon fill="white" stroke="#666666" points="232.5,-241 140.5,-241 140.5,-222 232.5,-222 232.5,-241"/>
<text text-anchor="middle" x="186.5" y="-229" font-family="Helvetica,sans-Serif" font-size="10.00">backward_pass</text>
</a>
</g>
</g>
<!-- Node1&#45;&gt;Node2 -->
<g id="edge1_Node000001_Node000002" class="edge">
<title>Node1&#45;&gt;Node2</title>
<g id="a_edge1_Node000001_Node000002"><a xlink:title=" ">
<path fill="none" stroke="#63b8ff" d="M48.18,-130.05C58.96,-148.97 85.67,-191.31 120,-213.5 123.36,-215.67 126.98,-217.58 130.73,-219.26"/>
<polygon fill="#63b8ff" stroke="#63b8ff" points="129.66,-222.6 140.24,-222.99 132.21,-216.09 129.66,-222.6"/>
</a>
</g>
</g>
<!-- Node4 -->
<g id="Node000004" class="node">
<title>Node4</title>
<g id="a_Node000004"><a xlink:href="train_8c.html#a2df9b11f3d149e3bb4d3410ca6808323" target="_top" xlink:title=" ">
<polygon fill="white" stroke="#666666" points="253,-204 120,-204 120,-185 253,-185 253,-204"/>
<text text-anchor="middle" x="186.5" y="-192" font-family="Helvetica,sans-Serif" font-size="10.00">compute_loss_accuracy</text>
</a>
</g>
</g>
<!-- Node1&#45;&gt;Node4 -->
<g id="edge3_Node000001_Node000004" class="edge">
<title>Node1&#45;&gt;Node4</title>
<g id="a_edge3_Node000001_Node000004"><a xlink:title=" ">
<path fill="none" stroke="#63b8ff" d="M53.66,-130.22C67.82,-142.64 94.08,-164.03 120,-176.5 123.99,-178.42 128.23,-180.17 132.54,-181.75"/>
<polygon fill="#63b8ff" stroke="#63b8ff" points="131.46,-185.08 142.06,-184.94 133.69,-178.44 131.46,-185.08"/>
</a>
</g>
</g>
<!-- Node5 -->
<g id="Node000005" class="node">
<title>Node5</title>
<g id="a_Node000005"><a xlink:href="train_8c.html#af8ec7c8e288bad0b3243516a3b94ce82" target="_top" xlink:title=" ">
<polygon fill="white" stroke="#666666" points="227.5,-167 145.5,-167 145.5,-148 227.5,-148 227.5,-167"/>
<text text-anchor="middle" x="186.5" y="-155" font-family="Helvetica,sans-Serif" font-size="10.00">forward_pass</text>
</a>
</g>
</g>
<!-- Node1&#45;&gt;Node5 -->
<g id="edge4_Node000001_Node000005" class="edge">
<title>Node1&#45;&gt;Node5</title>
<g id="a_edge4_Node000001_Node000005"><a xlink:title=" ">
<path fill="none" stroke="#63b8ff" d="M79.7,-130.03C97.67,-134.7 119.52,-140.37 138.69,-145.35"/>
<polygon fill="#63b8ff" stroke="#63b8ff" points="137.87,-148.75 148.43,-147.88 139.63,-141.97 137.87,-148.75"/>
</a>
</g>
</g>
<!-- Node8 -->
<g id="Node000008" class="node">
<title>Node8</title>
<g id="a_Node000008"><a xlink:href="train_8c.html#af45b379a1f8599ed7a63b03d911f5de2" target="_top" xlink:title=" ">
<polygon fill="white" stroke="#666666" points="229.5,-130 143.5,-130 143.5,-111 229.5,-111 229.5,-130"/>
<text text-anchor="middle" x="186.5" y="-118" font-family="Helvetica,sans-Serif" font-size="10.00">prepare_batch</text>
</a>
</g>
</g>
<!-- Node1&#45;&gt;Node8 -->
<g id="edge7_Node000001_Node000008" class="edge">
<title>Node1&#45;&gt;Node8</title>
<g id="a_edge7_Node000001_Node000008"><a xlink:title=" ">
<path fill="none" stroke="#63b8ff" d="M84.22,-120.5C99.46,-120.5 116.94,-120.5 133.04,-120.5"/>
<polygon fill="#63b8ff" stroke="#63b8ff" points="133.39,-124 143.39,-120.5 133.39,-117 133.39,-124"/>
</a>
</g>
</g>
<!-- Node9 -->
<g id="Node000009" class="node">
<title>Node9</title>
<g id="a_Node000009"><a xlink:href="train_8c.html#a437746e641f2bd51b37181f853986a82" target="_top" xlink:title=" ">
<polygon fill="white" stroke="#666666" points="228,-93 145,-93 145,-74 228,-74 228,-93"/>
<text text-anchor="middle" x="186.5" y="-81" font-family="Helvetica,sans-Serif" font-size="10.00">save_weights</text>
</a>
</g>
</g>
<!-- Node1&#45;&gt;Node9 -->
<g id="edge8_Node000001_Node000009" class="edge">
<title>Node1&#45;&gt;Node9</title>
<g id="a_edge8_Node000001_Node000009"><a xlink:title=" ">
<path fill="none" stroke="#63b8ff" d="M79.7,-110.97C97.67,-106.3 119.52,-100.63 138.69,-95.65"/>
<polygon fill="#63b8ff" stroke="#63b8ff" points="139.63,-99.03 148.43,-93.12 137.87,-92.25 139.63,-99.03"/>
</a>
</g>
</g>
<!-- Node10 -->
<g id="Node000010" class="node">
<title>Node10</title>
<g id="a_Node000010"><a xlink:href="train_8c.html#a7a1e34018704a0309544d274d9af3520" target="_top" xlink:title=" ">
<polygon fill="white" stroke="#666666" points="225,-56 148,-56 148,-37 225,-37 225,-56"/>
<text text-anchor="middle" x="186.5" y="-44" font-family="Helvetica,sans-Serif" font-size="10.00">shuffle_data</text>
</a>
</g>
</g>
<!-- Node1&#45;&gt;Node10 -->
<g id="edge9_Node000001_Node000010" class="edge">
<title>Node1&#45;&gt;Node10</title>
<g id="a_edge9_Node000001_Node000010"><a xlink:title=" ">
<path fill="none" stroke="#63b8ff" d="M54.22,-110.6C68.55,-98.42 94.57,-77.82 120,-65.5 125.73,-62.72 131.95,-60.27 138.2,-58.13"/>
<polygon fill="#63b8ff" stroke="#63b8ff" points="139.49,-61.39 147.96,-55.03 137.37,-54.72 139.49,-61.39"/>
</a>
</g>
</g>
<!-- Node11 -->
<g id="Node000011" class="node">
<title>Node11</title>
<g id="a_Node000011"><a xlink:href="train_8c.html#a0c77fb0483f3a735de5fb2ef3d74a0ff" target="_top" xlink:title=" ">
<polygon fill="white" stroke="#666666" points="234,-19 139,-19 139,0 234,0 234,-19"/>
<text text-anchor="middle" x="186.5" y="-7" font-family="Helvetica,sans-Serif" font-size="10.00">update_network</text>
</a>
</g>
</g>
<!-- Node1&#45;&gt;Node11 -->
<g id="edge10_Node000001_Node000011" class="edge">
<title>Node1&#45;&gt;Node11</title>
<g id="a_edge10_Node000001_Node000011"><a xlink:title=" ">
<path fill="none" stroke="#63b8ff" d="M48.18,-110.95C58.96,-92.03 85.67,-49.69 120,-27.5 122.96,-25.59 126.13,-23.87 129.4,-22.34"/>
<polygon fill="#63b8ff" stroke="#63b8ff" points="130.93,-25.5 138.87,-18.48 128.29,-19.02 130.93,-25.5"/>
</a>
</g>
</g>
<!-- Node3 -->
<g id="Node000003" class="node">
<title>Node3</title>
<g id="a_Node000003"><a xlink:href="train_8c.html#ac5ac4bb5fc903348dece824ce5ddb25a" target="_top" xlink:title=" ">
<polygon fill="white" stroke="#666666" points="379,-241 289,-241 289,-222 379,-222 379,-241"/>
<text text-anchor="middle" x="334" y="-229" font-family="Helvetica,sans-Serif" font-size="10.00">relu_derivative</text>
</a>
</g>
</g>
<!-- Node2&#45;&gt;Node3 -->
<g id="edge2_Node000002_Node000003" class="edge">
<title>Node2&#45;&gt;Node3</title>
<g id="a_edge2_Node000002_Node000003"><a xlink:title=" ">
<path fill="none" stroke="#63b8ff" d="M232.74,-231.5C247.24,-231.5 263.46,-231.5 278.55,-231.5"/>
<polygon fill="#63b8ff" stroke="#63b8ff" points="278.79,-235 288.79,-231.5 278.79,-228 278.79,-235"/>
</a>
</g>
</g>
<!-- Node6 -->
<g id="Node000006" class="node">
<title>Node6</title>
<g id="a_Node000006"><a xlink:href="train_8c.html#adb6293450780c47c93c102da587f72ff" target="_top" xlink:title=" ">
<polygon fill="white" stroke="#666666" points="351.5,-186 316.5,-186 316.5,-167 351.5,-167 351.5,-186"/>
<text text-anchor="middle" x="334" y="-174" font-family="Helvetica,sans-Serif" font-size="10.00">relu</text>
</a>
</g>
</g>
<!-- Node5&#45;&gt;Node6 -->
<g id="edge5_Node000005_Node000006" class="edge">
<title>Node5&#45;&gt;Node6</title>
<g id="a_edge5_Node000005_Node000006"><a xlink:title=" ">
<path fill="none" stroke="#63b8ff" d="M227.64,-162.74C252.65,-166.01 284.15,-170.12 306.16,-173"/>
<polygon fill="#63b8ff" stroke="#63b8ff" points="305.77,-176.47 316.13,-174.3 306.67,-169.53 305.77,-176.47"/>
</a>
</g>
</g>
<!-- Node7 -->
<g id="Node000007" class="node">
<title>Node7</title>
<g id="a_Node000007"><a xlink:href="train_8c.html#ada4131daa6fd8cbfd794235c891e3250" target="_top" xlink:title=" ">
<polygon fill="white" stroke="#666666" points="362,-149 306,-149 306,-130 362,-130 362,-149"/>
<text text-anchor="middle" x="334" y="-137" font-family="Helvetica,sans-Serif" font-size="10.00">softmax</text>
</a>
</g>
</g>
<!-- Node5&#45;&gt;Node7 -->
<g id="edge6_Node000005_Node000007" class="edge">
<title>Node5&#45;&gt;Node7</title>
<g id="a_edge6_Node000005_Node000007"><a xlink:title=" ">
<path fill="none" stroke="#63b8ff" d="M227.64,-152.53C248.94,-149.9 274.94,-146.68 295.79,-144.1"/>
<polygon fill="#63b8ff" stroke="#63b8ff" points="296.37,-147.56 305.86,-142.86 295.51,-140.61 296.37,-147.56"/>
</a>
</g>
</g>
</g>
</svg>
