<?xml version="1.0" encoding="UTF-8" standalone="no"?>
<!DOCTYPE svg PUBLIC "-//W3C//DTD SVG 1.1//EN"
 "http://www.w3.org/Graphics/SVG/1.1/DTD/svg11.dtd">
<!-- Generated by graphviz version 2.42.4 (0)
 -->
<!-- Title: create_augmented_dataset Pages: 1 -->
<svg width="501pt" height="64pt"
 viewBox="0.00 0.00 501.00 64.00" xmlns="http://www.w3.org/2000/svg" xmlns:xlink="http://www.w3.org/1999/xlink">
<g id="graph0" class="graph" transform="scale(1 1) rotate(0) translate(4 60)">
<title>create_augmented_dataset</title>
<!-- Node1 -->
<g id="Node000001" class="node">
<title>Node1</title>
<g id="a_Node000001"><a xlink:title=" ">
<polygon fill="#999999" stroke="#666666" points="150,-37 0,-37 0,-18 150,-18 150,-37"/>
<text text-anchor="middle" x="75" y="-25" font-family="Helvetica,sans-Serif" font-size="10.00">create_augmented_dataset</text>
</a>
</g>
</g>
<!-- Node2 -->
<g id="Node000002" class="node">
<title>Node2</title>
<g id="a_Node000002"><a xlink:href="train_8c.html#a610d509260b461d3f463692149d97314" target="_top" xlink:title=" ">
<polygon fill="white" stroke="#666666" points="273,-37 186,-37 186,-18 273,-18 273,-37"/>
<text text-anchor="middle" x="229.5" y="-25" font-family="Helvetica,sans-Serif" font-size="10.00">augment_digit</text>
</a>
</g>
</g>
<!-- Node1&#45;&gt;Node2 -->
<g id="edge1_Node000001_Node000002" class="edge">
<title>Node1&#45;&gt;Node2</title>
<g id="a_edge1_Node000001_Node000002"><a xlink:title=" ">
<path fill="none" stroke="#63b8ff" d="M150.02,-27.5C158.66,-27.5 167.34,-27.5 175.62,-27.5"/>
<polygon fill="#63b8ff" stroke="#63b8ff" points="175.85,-31 185.85,-27.5 175.85,-24 175.85,-31"/>
</a>
</g>
</g>
<!-- Node3 -->
<g id="Node000003" class="node">
<title>Node3</title>
<g id="a_Node000003"><a xlink:href="train_8c.html#aed37ff204595e4f98c3038734cc8d349" target="_top" xlink:title=" ">
<polygon fill="white" stroke="#666666" points="397,-56 309,-56 309,-37 397,-37 397,-56"/>
<text text-anchor="middle" x="353" y="-44" font-family="Helvetica,sans-Serif" font-size="10.00">gaussian_filter</text>
</a>
</g>
</g>
<!-- Node2&#45;&gt;Node3 -->
<g id="edge2_Node000002_Node000003" class="edge">
<title>Node2&#45;&gt;Node3</title>
<g id="a_edge2_Node000002_Node000003"><a xlink:title=" ">
<path fill="none" stroke="#63b8ff" d="M273.34,-34.2C281.5,-35.47 290.13,-36.82 298.57,-38.15"/>
<polygon fill="#63b8ff" stroke="#63b8ff" points="298.31,-41.65 308.73,-39.73 299.39,-34.73 298.31,-41.65"/>
</a>
</g>
</g>
<!-- Node5 -->
<g id="Node000005" class="node">
<title>Node5</title>
<g id="a_Node000005"><a xlink:href="train_8c.html#a72fb9f512cf4afcefa5dce5e1608c9da" target="_top" xlink:title=" ">
<polygon fill="white" stroke="#666666" points="394,-19 312,-19 312,0 394,0 394,-19"/>
<text text-anchor="middle" x="353" y="-7" font-family="Helvetica,sans-Serif" font-size="10.00">rotate_image</text>
</a>
</g>
</g>
<!-- Node2&#45;&gt;Node5 -->
<g id="edge4_Node000002_Node000005" class="edge">
<title>Node2&#45;&gt;Node5</title>
<g id="a_edge4_Node000002_Node000005"><a xlink:title=" ">
<path fill="none" stroke="#63b8ff" d="M273.34,-21.15C282.57,-19.79 292.41,-18.33 301.89,-16.92"/>
<polygon fill="#63b8ff" stroke="#63b8ff" points="302.61,-20.36 311.99,-15.43 301.59,-13.43 302.61,-20.36"/>
</a>
</g>
</g>
<!-- Node4 -->
<g id="Node000004" class="node">
<title>Node4</title>
<g id="a_Node000004"><a xlink:href="train_8c.html#a691eb2f09a33f5f55506aa5cfbcba9de" target="_top" xlink:title=" ">
<polygon fill="white" stroke="#666666" points="493,-56 433,-56 433,-37 493,-37 493,-56"/>
<text text-anchor="middle" x="463" y="-44" font-family="Helvetica,sans-Serif" font-size="10.00">gaussian</text>
</a>
</g>
</g>
<!-- Node3&#45;&gt;Node4 -->
<g id="edge3_Node000003_Node000004" class="edge">
<title>Node3&#45;&gt;Node4</title>
<g id="a_edge3_Node000003_Node000004"><a xlink:title=" ">
<path fill="none" stroke="#63b8ff" d="M397.31,-46.5C405.72,-46.5 414.5,-46.5 422.78,-46.5"/>
<polygon fill="#63b8ff" stroke="#63b8ff" points="422.93,-50 432.93,-46.5 422.93,-43 422.93,-50"/>
</a>
</g>
</g>
</g>
</svg>
