<?xml version="1.0" encoding="UTF-8" standalone="no"?>
<!DOCTYPE svg PUBLIC "-//W3C//DTD SVG 1.1//EN"
 "http://www.w3.org/Graphics/SVG/1.1/DTD/svg11.dtd">
<!-- Generated by graphviz version 2.42.4 (0)
 -->
<!-- Title: allocate_array Pages: 1 -->
<svg width="311pt" height="76pt"
 viewBox="0.00 0.00 311.00 75.50" xmlns="http://www.w3.org/2000/svg" xmlns:xlink="http://www.w3.org/1999/xlink">

<svg id="main" version="1.1" xmlns="http://www.w3.org/2000/svg" xmlns:xlink="http://www.w3.org/1999/xlink" xml:space="preserve" onload="init(evt)">
<style type="text/css"><![CDATA[
.node, .edge {opacity: 0.7;}
.node.selected, .edge.selected {opacity: 1;}
.edge:hover path { stroke: red; }
.edge:hover polygon { stroke: red; fill: red; }
]]></style>
<script type="application/ecmascript" xlink:href="svg.min.js"/>
<svg id="graph" class="graph">
<g id="graph0" class="graph" transform="scale(1 1) rotate(0) translate(4 71.5)">
<title>allocate_array</title>
<!-- Node1 -->
<g id="Node000001" class="node">
<title>Node1</title>
<g id="a_Node000001"><a xlink:title=" ">
<polygon fill="#999999" stroke="#666666" points="303,-45.5 217,-45.5 217,-26.5 303,-26.5 303,-45.5"/>
<text text-anchor="middle" x="260" y="-33.5" font-family="Helvetica,sans-Serif" font-size="10.00">allocate_array</text>
</a>
</g>
</g>
<!-- Node2 -->
<g id="Node000002" class="node">
<title>Node2</title>
<g id="a_Node000002"><a xlink:href="train_8c.html#a045bb8b5750155f1b76ea8674ed46544" target="_top" xlink:title=" ">
<polygon fill="white" stroke="#666666" points="181,-67.5 77,-67.5 77,-48.5 181,-48.5 181,-67.5"/>
<text text-anchor="middle" x="129" y="-55.5" font-family="Helvetica,sans-Serif" font-size="10.00">initialize_network</text>
</a>
</g>
</g>
<!-- Node1&#45;&gt;Node2 -->
<g id="edge1_Node000001_Node000002" class="edge">
<title>Node1&#45;&gt;Node2</title>
<g id="a_edge1_Node000001_Node000002"><a xlink:title=" ">
<path fill="none" stroke="#63b8ff" d="M206.73,-44.91C198.35,-46.34 189.69,-47.82 181.34,-49.24"/>
<polygon fill="#63b8ff" stroke="#63b8ff" points="207.49,-48.34 216.76,-43.2 206.31,-41.43 207.49,-48.34"/>
</a>
</g>
</g>
<!-- Node4 -->
<g id="Node000004" class="node">
<title>Node4</title>
<g id="a_Node000004"><a xlink:href="train_8c.html#aee0d81d2ae9aab7f0d911fea32858ab7" target="_top" xlink:title=" ">
<polygon fill="white" stroke="#666666" points="179.5,-30 78.5,-30 78.5,0 179.5,0 179.5,-30"/>
<text text-anchor="start" x="86.5" y="-18" font-family="Helvetica,sans-Serif" font-size="10.00">initialize_training</text>
<text text-anchor="middle" x="129" y="-7" font-family="Helvetica,sans-Serif" font-size="10.00">_resources</text>
</a>
</g>
</g>
<!-- Node1&#45;&gt;Node4 -->
<g id="edge3_Node000001_Node000004" class="edge">
<title>Node1&#45;&gt;Node4</title>
<g id="a_edge3_Node000001_Node000004"><a xlink:title=" ">
<path fill="none" stroke="#63b8ff" d="M206.78,-27.5C197.77,-26.03 188.44,-24.51 179.51,-23.06"/>
<polygon fill="#63b8ff" stroke="#63b8ff" points="206.33,-30.97 216.76,-29.12 207.45,-24.06 206.33,-30.97"/>
</a>
</g>
</g>
<!-- Node3 -->
<g id="Node000003" class="node">
<title>Node3</title>
<g id="a_Node000003"><a xlink:href="train_8c.html#a840291bc02cba5474a4cb46a9b9566fe" target="_top" xlink:title=" ">
<polygon fill="white" stroke="#666666" points="41,-45.5 0,-45.5 0,-26.5 41,-26.5 41,-45.5"/>
<text text-anchor="middle" x="20.5" y="-33.5" font-family="Helvetica,sans-Serif" font-size="10.00">main</text>
</a>
</g>
</g>
<!-- Node2&#45;&gt;Node3 -->
<g id="edge2_Node000002_Node000003" class="edge">
<title>Node2&#45;&gt;Node3</title>
<g id="a_edge2_Node000002_Node000003"><a xlink:title=" ">
<path fill="none" stroke="#63b8ff" d="M71.81,-46.39C60.8,-44.12 49.96,-41.88 41.18,-40.07"/>
<polygon fill="#63b8ff" stroke="#63b8ff" points="71.41,-49.88 81.91,-48.48 72.82,-43.03 71.41,-49.88"/>
</a>
</g>
</g>
<!-- Node4&#45;&gt;Node3 -->
<g id="edge4_Node000004_Node000003" class="edge">
<title>Node4&#45;&gt;Node3</title>
<g id="a_edge4_Node000004_Node000003"><a xlink:title=" ">
<path fill="none" stroke="#63b8ff" d="M68.54,-26.72C58.64,-28.68 49.03,-30.57 41.1,-32.13"/>
<polygon fill="#63b8ff" stroke="#63b8ff" points="69.36,-30.13 78.49,-24.76 68,-23.26 69.36,-30.13"/>
</a>
</g>
</g>
</g>
</svg>
</svg>

<style type='text/css'>
<![CDATA[
[data-mouse-over-selected='false'] { opacity: 0.7; }
[data-mouse-over-selected='true']  { opacity: 1.0; }
]]>
</style>
<script type="application/ecmascript"><![CDATA[
document.addEventListener('DOMContentLoaded', (event) => {
  highlightEdges();
  highlightAdjacentNodes();
});
]]></script>
</svg>
