<?xml version="1.0" encoding="UTF-8" standalone="no"?>
<!DOCTYPE svg PUBLIC "-//W3C//DTD SVG 1.1//EN"
 "http://www.w3.org/Graphics/SVG/1.1/DTD/svg11.dtd">
<!-- Generated by graphviz version 2.42.4 (0)
 -->
<!-- Title: augment_digit Pages: 1 -->
<svg width="315pt" height="64pt"
 viewBox="0.00 0.00 315.00 64.00" xmlns="http://www.w3.org/2000/svg" xmlns:xlink="http://www.w3.org/1999/xlink">
<g id="graph0" class="graph" transform="scale(1 1) rotate(0) translate(4 60)">
<title>augment_digit</title>
<!-- Node1 -->
<g id="Node000001" class="node">
<title>Node1</title>
<g id="a_Node000001"><a xlink:title=" ">
<polygon fill="#999999" stroke="#666666" points="87,-37 0,-37 0,-18 87,-18 87,-37"/>
<text text-anchor="middle" x="43.5" y="-25" font-family="Helvetica,sans-Serif" font-size="10.00">augment_digit</text>
</a>
</g>
</g>
<!-- Node2 -->
<g id="Node000002" class="node">
<title>Node2</title>
<g id="a_Node000002"><a xlink:href="train_8c.html#aed37ff204595e4f98c3038734cc8d349" target="_top" xlink:title=" ">
<polygon fill="white" stroke="#666666" points="211,-56 123,-56 123,-37 211,-37 211,-56"/>
<text text-anchor="middle" x="167" y="-44" font-family="Helvetica,sans-Serif" font-size="10.00">gaussian_filter</text>
</a>
</g>
</g>
<!-- Node1&#45;&gt;Node2 -->
<g id="edge1_Node000001_Node000002" class="edge">
<title>Node1&#45;&gt;Node2</title>
<g id="a_edge1_Node000001_Node000002"><a xlink:title=" ">
<path fill="none" stroke="#63b8ff" d="M87.34,-34.2C95.5,-35.47 104.13,-36.82 112.57,-38.15"/>
<polygon fill="#63b8ff" stroke="#63b8ff" points="112.31,-41.65 122.73,-39.73 113.39,-34.73 112.31,-41.65"/>
</a>
</g>
</g>
<!-- Node4 -->
<g id="Node000004" class="node">
<title>Node4</title>
<g id="a_Node000004"><a xlink:href="train_8c.html#a72fb9f512cf4afcefa5dce5e1608c9da" target="_top" xlink:title=" ">
<polygon fill="white" stroke="#666666" points="208,-19 126,-19 126,0 208,0 208,-19"/>
<text text-anchor="middle" x="167" y="-7" font-family="Helvetica,sans-Serif" font-size="10.00">rotate_image</text>
</a>
</g>
</g>
<!-- Node1&#45;&gt;Node4 -->
<g id="edge3_Node000001_Node000004" class="edge">
<title>Node1&#45;&gt;Node4</title>
<g id="a_edge3_Node000001_Node000004"><a xlink:title=" ">
<path fill="none" stroke="#63b8ff" d="M87.34,-21.15C96.57,-19.79 106.41,-18.33 115.89,-16.92"/>
<polygon fill="#63b8ff" stroke="#63b8ff" points="116.61,-20.36 125.99,-15.43 115.59,-13.43 116.61,-20.36"/>
</a>
</g>
</g>
<!-- Node3 -->
<g id="Node000003" class="node">
<title>Node3</title>
<g id="a_Node000003"><a xlink:href="train_8c.html#a691eb2f09a33f5f55506aa5cfbcba9de" target="_top" xlink:title=" ">
<polygon fill="white" stroke="#666666" points="307,-56 247,-56 247,-37 307,-37 307,-56"/>
<text text-anchor="middle" x="277" y="-44" font-family="Helvetica,sans-Serif" font-size="10.00">gaussian</text>
</a>
</g>
</g>
<!-- Node2&#45;&gt;Node3 -->
<g id="edge2_Node000002_Node000003" class="edge">
<title>Node2&#45;&gt;Node3</title>
<g id="a_edge2_Node000002_Node000003"><a xlink:title=" ">
<path fill="none" stroke="#63b8ff" d="M211.31,-46.5C219.72,-46.5 228.5,-46.5 236.78,-46.5"/>
<polygon fill="#63b8ff" stroke="#63b8ff" points="236.93,-50 246.93,-46.5 236.93,-43 236.93,-50"/>
</a>
</g>
</g>
</g>
</svg>
