<?xml version="1.0" encoding="UTF-8" standalone="no"?>
<!DOCTYPE svg PUBLIC "-//W3C//DTD SVG 1.1//EN"
 "http://www.w3.org/Graphics/SVG/1.1/DTD/svg11.dtd">
<!-- Generated by graphviz version 2.42.4 (0)
 -->
<!-- Title: main Pages: 1 -->
<svg width="626pt" height="501pt"
 viewBox="0.00 0.00 626.00 501.00" xmlns="http://www.w3.org/2000/svg" xmlns:xlink="http://www.w3.org/1999/xlink">
<g id="graph0" class="graph" transform="scale(1 1) rotate(0) translate(4 497)">
<title>main</title>
<!-- Node1 -->
<g id="Node000001" class="node">
<title>Node1</title>
<g id="a_Node000001"><a xlink:title=" ">
<polygon fill="#999999" stroke="#666666" points="41,-358 0,-358 0,-339 41,-339 41,-358"/>
<text text-anchor="middle" x="20.5" y="-346" font-family="Helvetica,sans-Serif" font-size="10.00">main</text>
</a>
</g>
</g>
<!-- Node2 -->
<g id="Node000002" class="node">
<title>Node2</title>
<g id="a_Node000002"><a xlink:href="train_8c.html#a540654dda30c1be810556dd42ed6c145" target="_top" xlink:title=" ">
<polygon fill="white" stroke="#666666" points="227,-475 77,-475 77,-456 227,-456 227,-475"/>
<text text-anchor="middle" x="152" y="-463" font-family="Helvetica,sans-Serif" font-size="10.00">create_augmented_dataset</text>
</a>
</g>
</g>
<!-- Node1&#45;&gt;Node2 -->
<g id="edge1_Node000001_Node000002" class="edge">
<title>Node1&#45;&gt;Node2</title>
<g id="a_edge1_Node000001_Node000002"><a xlink:title=" ">
<path fill="none" stroke="#63b8ff" d="M24.06,-358.11C29.88,-378.06 46.08,-424.03 77,-447.5 78.84,-448.9 80.77,-450.19 82.78,-451.38"/>
<polygon fill="#63b8ff" stroke="#63b8ff" points="81.46,-454.63 91.97,-455.99 84.6,-448.38 81.46,-454.63"/>
</a>
</g>
</g>
<!-- Node7 -->
<g id="Node000007" class="node">
<title>Node7</title>
<g id="a_Node000007"><a xlink:href="train_8c.html#a3fbfc99bdf0d9b7f756aa9ed4f1902a9" target="_top" xlink:title=" ">
<polygon fill="white" stroke="#666666" points="192.5,-438 111.5,-438 111.5,-419 192.5,-419 192.5,-438"/>
<text text-anchor="middle" x="152" y="-426" font-family="Helvetica,sans-Serif" font-size="10.00">free_network</text>
</a>
</g>
</g>
<!-- Node1&#45;&gt;Node7 -->
<g id="edge6_Node000001_Node000007" class="edge">
<title>Node1&#45;&gt;Node7</title>
<g id="a_edge6_Node000001_Node000007"><a xlink:title=" ">
<path fill="none" stroke="#63b8ff" d="M27.37,-358.12C36.32,-371.91 54.69,-397.14 77,-410.5 84.42,-414.94 92.88,-418.29 101.36,-420.81"/>
<polygon fill="#63b8ff" stroke="#63b8ff" points="100.71,-424.26 111.27,-423.41 102.48,-417.49 100.71,-424.26"/>
</a>
</g>
</g>
<!-- Node8 -->
<g id="Node000008" class="node">
<title>Node8</title>
<g id="a_Node000008"><a xlink:href="train_8c.html#a32ae2de2a05cfa448fe5f0032e439202" target="_top" xlink:title=" ">
<polygon fill="white" stroke="#666666" points="217.5,-401 86.5,-401 86.5,-382 217.5,-382 217.5,-401"/>
<text text-anchor="middle" x="152" y="-389" font-family="Helvetica,sans-Serif" font-size="10.00">free_training_resources</text>
</a>
</g>
</g>
<!-- Node1&#45;&gt;Node8 -->
<g id="edge7_Node000001_Node000008" class="edge">
<title>Node1&#45;&gt;Node8</title>
<g id="a_edge7_Node000001_Node000008"><a xlink:title=" ">
<path fill="none" stroke="#63b8ff" d="M41.24,-357.93C51.71,-362.71 64.88,-368.35 77,-372.5 84.16,-374.95 91.79,-377.25 99.35,-379.35"/>
<polygon fill="#63b8ff" stroke="#63b8ff" points="98.61,-382.77 109.18,-381.98 100.42,-376.01 98.61,-382.77"/>
</a>
</g>
</g>
<!-- Node9 -->
<g id="Node000009" class="node">
<title>Node9</title>
<g id="a_Node000009"><a xlink:href="train_8c.html#a045bb8b5750155f1b76ea8674ed46544" target="_top" xlink:title=" ">
<polygon fill="white" stroke="#666666" points="204,-315 100,-315 100,-296 204,-296 204,-315"/>
<text text-anchor="middle" x="152" y="-303" font-family="Helvetica,sans-Serif" font-size="10.00">initialize_network</text>
</a>
</g>
</g>
<!-- Node1&#45;&gt;Node9 -->
<g id="edge8_Node000001_Node000009" class="edge">
<title>Node1&#45;&gt;Node9</title>
<g id="a_edge8_Node000001_Node000009"><a xlink:title=" ">
<path fill="none" stroke="#63b8ff" d="M41.24,-339.07C51.71,-334.29 64.88,-328.65 77,-324.5 84.16,-322.05 91.79,-319.75 99.35,-317.65"/>
<polygon fill="#63b8ff" stroke="#63b8ff" points="100.42,-320.99 109.18,-315.02 98.61,-314.23 100.42,-320.99"/>
</a>
</g>
</g>
<!-- Node12 -->
<g id="Node000012" class="node">
<title>Node12</title>
<g id="a_Node000012"><a xlink:href="train_8c.html#aee0d81d2ae9aab7f0d911fea32858ab7" target="_top" xlink:title=" ">
<polygon fill="white" stroke="#666666" points="202.5,-363.5 101.5,-363.5 101.5,-333.5 202.5,-333.5 202.5,-363.5"/>
<text text-anchor="start" x="109.5" y="-351.5" font-family="Helvetica,sans-Serif" font-size="10.00">initialize_training</text>
<text text-anchor="middle" x="152" y="-340.5" font-family="Helvetica,sans-Serif" font-size="10.00">_resources</text>
</a>
</g>
</g>
<!-- Node1&#45;&gt;Node12 -->
<g id="edge11_Node000001_Node000012" class="edge">
<title>Node1&#45;&gt;Node12</title>
<g id="a_edge11_Node000001_Node000012"><a xlink:title=" ">
<path fill="none" stroke="#63b8ff" d="M41.17,-348.5C54.6,-348.5 73.16,-348.5 91.21,-348.5"/>
<polygon fill="#63b8ff" stroke="#63b8ff" points="91.44,-352 101.44,-348.5 91.44,-345 91.44,-352"/>
</a>
</g>
</g>
<!-- Node13 -->
<g id="Node000013" class="node">
<title>Node13</title>
<g id="a_Node000013"><a xlink:href="train_8c.html#ad63ee2e58e4e87f600e8a35cb2b2a83e" target="_top" xlink:title=" ">
<polygon fill="white" stroke="#666666" points="201,-278 103,-278 103,-259 201,-259 201,-278"/>
<text text-anchor="middle" x="152" y="-266" font-family="Helvetica,sans-Serif" font-size="10.00">load_mnist_data</text>
</a>
</g>
</g>
<!-- Node1&#45;&gt;Node13 -->
<g id="edge13_Node000001_Node000013" class="edge">
<title>Node1&#45;&gt;Node13</title>
<g id="a_edge13_Node000001_Node000013"><a xlink:title=" ">
<path fill="none" stroke="#63b8ff" d="M27.74,-338.62C36.86,-325 55.17,-300.65 77,-287.5 82.02,-284.48 87.52,-281.93 93.17,-279.79"/>
<polygon fill="#63b8ff" stroke="#63b8ff" points="94.42,-283.06 102.78,-276.55 92.19,-276.42 94.42,-283.06"/>
</a>
</g>
</g>
<!-- Node15 -->
<g id="Node000015" class="node">
<title>Node15</title>
<g id="a_Node000015"><a xlink:href="train_8c.html#aeb2041f1a971bb8b5197c9dfd38c81f2" target="_top" xlink:title=" ">
<polygon fill="white" stroke="#666666" points="194,-149 110,-149 110,-130 194,-130 194,-149"/>
<text text-anchor="middle" x="152" y="-137" font-family="Helvetica,sans-Serif" font-size="10.00">train_network</text>
</a>
</g>
</g>
<!-- Node1&#45;&gt;Node15 -->
<g id="edge15_Node000001_Node000015" class="edge">
<title>Node1&#45;&gt;Node15</title>
<g id="a_edge15_Node000001_Node000015"><a xlink:title=" ">
<path fill="none" stroke="#63b8ff" d="M26.63,-338.91C36.17,-321.2 57.43,-282.31 77,-250.5 97.6,-217.02 123.42,-179.13 138.48,-157.41"/>
<polygon fill="#63b8ff" stroke="#63b8ff" points="141.39,-159.35 144.22,-149.14 135.64,-155.36 141.39,-159.35"/>
</a>
</g>
</g>
<!-- Node3 -->
<g id="Node000003" class="node">
<title>Node3</title>
<g id="a_Node000003"><a xlink:href="train_8c.html#a610d509260b461d3f463692149d97314" target="_top" xlink:title=" ">
<polygon fill="white" stroke="#666666" points="373,-475 286,-475 286,-456 373,-456 373,-475"/>
<text text-anchor="middle" x="329.5" y="-463" font-family="Helvetica,sans-Serif" font-size="10.00">augment_digit</text>
</a>
</g>
</g>
<!-- Node2&#45;&gt;Node3 -->
<g id="edge2_Node000002_Node000003" class="edge">
<title>Node2&#45;&gt;Node3</title>
<g id="a_edge2_Node000002_Node000003"><a xlink:title=" ">
<path fill="none" stroke="#63b8ff" d="M227.17,-465.5C243.44,-465.5 260.34,-465.5 275.58,-465.5"/>
<polygon fill="#63b8ff" stroke="#63b8ff" points="275.83,-469 285.83,-465.5 275.83,-462 275.83,-469"/>
</a>
</g>
</g>
<!-- Node4 -->
<g id="Node000004" class="node">
<title>Node4</title>
<g id="a_Node000004"><a xlink:href="train_8c.html#aed37ff204595e4f98c3038734cc8d349" target="_top" xlink:title=" ">
<polygon fill="white" stroke="#666666" points="521,-493 433,-493 433,-474 521,-474 521,-493"/>
<text text-anchor="middle" x="477" y="-481" font-family="Helvetica,sans-Serif" font-size="10.00">gaussian_filter</text>
</a>
</g>
</g>
<!-- Node3&#45;&gt;Node4 -->
<g id="edge3_Node000003_Node000004" class="edge">
<title>Node3&#45;&gt;Node4</title>
<g id="a_edge3_Node000003_Node000004"><a xlink:title=" ">
<path fill="none" stroke="#63b8ff" d="M373.37,-470.8C388.92,-472.73 406.67,-474.92 422.99,-476.94"/>
<polygon fill="#63b8ff" stroke="#63b8ff" points="422.58,-480.42 432.94,-478.17 423.44,-473.47 422.58,-480.42"/>
</a>
</g>
</g>
<!-- Node6 -->
<g id="Node000006" class="node">
<title>Node6</title>
<g id="a_Node000006"><a xlink:href="train_8c.html#a72fb9f512cf4afcefa5dce5e1608c9da" target="_top" xlink:title=" ">
<polygon fill="white" stroke="#666666" points="518,-456 436,-456 436,-437 518,-437 518,-456"/>
<text text-anchor="middle" x="477" y="-444" font-family="Helvetica,sans-Serif" font-size="10.00">rotate_image</text>
</a>
</g>
</g>
<!-- Node3&#45;&gt;Node6 -->
<g id="edge5_Node000003_Node000006" class="edge">
<title>Node3&#45;&gt;Node6</title>
<g id="a_edge5_Node000003_Node000006"><a xlink:title=" ">
<path fill="none" stroke="#63b8ff" d="M373.37,-459.9C389.75,-457.76 408.58,-455.3 425.6,-453.08"/>
<polygon fill="#63b8ff" stroke="#63b8ff" points="426.47,-456.5 435.93,-451.73 425.56,-449.56 426.47,-456.5"/>
</a>
</g>
</g>
<!-- Node5 -->
<g id="Node000005" class="node">
<title>Node5</title>
<g id="a_Node000005"><a xlink:href="train_8c.html#a691eb2f09a33f5f55506aa5cfbcba9de" target="_top" xlink:title=" ">
<polygon fill="white" stroke="#666666" points="618,-493 558,-493 558,-474 618,-474 618,-493"/>
<text text-anchor="middle" x="588" y="-481" font-family="Helvetica,sans-Serif" font-size="10.00">gaussian</text>
</a>
</g>
</g>
<!-- Node4&#45;&gt;Node5 -->
<g id="edge4_Node000004_Node000005" class="edge">
<title>Node4&#45;&gt;Node5</title>
<g id="a_edge4_Node000004_Node000005"><a xlink:title=" ">
<path fill="none" stroke="#63b8ff" d="M521.08,-483.5C529.88,-483.5 539.09,-483.5 547.75,-483.5"/>
<polygon fill="#63b8ff" stroke="#63b8ff" points="547.97,-487 557.97,-483.5 547.97,-480 547.97,-487"/>
</a>
</g>
</g>
<!-- Node10 -->
<g id="Node000010" class="node">
<title>Node10</title>
<g id="a_Node000010"><a xlink:href="train_8c.html#a45d123d4bb20d886e0c403b0245634b0" target="_top" xlink:title=" ">
<polygon fill="white" stroke="#666666" points="372.5,-355 286.5,-355 286.5,-336 372.5,-336 372.5,-355"/>
<text text-anchor="middle" x="329.5" y="-343" font-family="Helvetica,sans-Serif" font-size="10.00">allocate_array</text>
</a>
</g>
</g>
<!-- Node9&#45;&gt;Node10 -->
<g id="edge9_Node000009_Node000010" class="edge">
<title>Node9&#45;&gt;Node10</title>
<g id="a_edge9_Node000009_Node000010"><a xlink:title=" ">
<path fill="none" stroke="#63b8ff" d="M195.04,-315.08C219.57,-320.67 250.71,-327.77 276.74,-333.7"/>
<polygon fill="#63b8ff" stroke="#63b8ff" points="276.28,-337.19 286.81,-336 277.83,-330.36 276.28,-337.19"/>
</a>
</g>
</g>
<!-- Node11 -->
<g id="Node000011" class="node">
<title>Node11</title>
<g id="a_Node000011"><a xlink:href="train_8c.html#a0867e81de2936adba1f10d470dd700a9" target="_top" xlink:title=" ">
<polygon fill="white" stroke="#666666" points="376.5,-315 282.5,-315 282.5,-296 376.5,-296 376.5,-315"/>
<text text-anchor="middle" x="329.5" y="-303" font-family="Helvetica,sans-Serif" font-size="10.00">random_normal</text>
</a>
</g>
</g>
<!-- Node9&#45;&gt;Node11 -->
<g id="edge10_Node000009_Node000011" class="edge">
<title>Node9&#45;&gt;Node11</title>
<g id="a_edge10_Node000009_Node000011"><a xlink:title=" ">
<path fill="none" stroke="#63b8ff" d="M204.23,-305.5C225.55,-305.5 250.35,-305.5 272.18,-305.5"/>
<polygon fill="#63b8ff" stroke="#63b8ff" points="272.29,-309 282.29,-305.5 272.29,-302 272.29,-309"/>
</a>
</g>
</g>
<!-- Node12&#45;&gt;Node10 -->
<g id="edge12_Node000012_Node000010" class="edge">
<title>Node12&#45;&gt;Node10</title>
<g id="a_edge12_Node000012_Node000010"><a xlink:title=" ">
<path fill="none" stroke="#63b8ff" d="M202.82,-347.65C225.77,-347.26 253.01,-346.79 276.25,-346.39"/>
<polygon fill="#63b8ff" stroke="#63b8ff" points="276.34,-349.89 286.28,-346.22 276.22,-342.89 276.34,-349.89"/>
</a>
</g>
</g>
<!-- Node14 -->
<g id="Node000014" class="node">
<title>Node14</title>
<g id="a_Node000014"><a xlink:href="train_8c.html#a2a02b98e2929bb19d76a6dfbbac24d14" target="_top" xlink:title=" ">
<polygon fill="white" stroke="#666666" points="369,-278 290,-278 290,-259 369,-259 369,-278"/>
<text text-anchor="middle" x="329.5" y="-266" font-family="Helvetica,sans-Serif" font-size="10.00">read_idx_file</text>
</a>
</g>
</g>
<!-- Node13&#45;&gt;Node14 -->
<g id="edge14_Node000013_Node000014" class="edge">
<title>Node13&#45;&gt;Node14</title>
<g id="a_edge14_Node000013_Node000014"><a xlink:title=" ">
<path fill="none" stroke="#63b8ff" d="M201.42,-268.5C225.83,-268.5 255.37,-268.5 279.82,-268.5"/>
<polygon fill="#63b8ff" stroke="#63b8ff" points="279.96,-272 289.96,-268.5 279.96,-265 279.96,-272"/>
</a>
</g>
</g>
<!-- Node16 -->
<g id="Node000016" class="node">
<title>Node16</title>
<g id="a_Node000016"><a xlink:href="train_8c.html#a062e67a2fff70756a17088d2582d8336" target="_top" xlink:title=" ">
<polygon fill="white" stroke="#666666" points="375.5,-241 283.5,-241 283.5,-222 375.5,-222 375.5,-241"/>
<text text-anchor="middle" x="329.5" y="-229" font-family="Helvetica,sans-Serif" font-size="10.00">backward_pass</text>
</a>
</g>
</g>
<!-- Node15&#45;&gt;Node16 -->
<g id="edge16_Node000015_Node000016" class="edge">
<title>Node15&#45;&gt;Node16</title>
<g id="a_edge16_Node000015_Node000016"><a xlink:title=" ">
<path fill="none" stroke="#63b8ff" d="M164.45,-149.07C183.65,-164.67 224.09,-195.65 263,-213.5 267.15,-215.41 271.55,-217.15 276.02,-218.73"/>
<polygon fill="#63b8ff" stroke="#63b8ff" points="275.26,-222.16 285.85,-221.94 277.44,-215.51 275.26,-222.16"/>
</a>
</g>
</g>
<!-- Node18 -->
<g id="Node000018" class="node">
<title>Node18</title>
<g id="a_Node000018"><a xlink:href="train_8c.html#a2df9b11f3d149e3bb4d3410ca6808323" target="_top" xlink:title=" ">
<polygon fill="white" stroke="#666666" points="396,-204 263,-204 263,-185 396,-185 396,-204"/>
<text text-anchor="middle" x="329.5" y="-192" font-family="Helvetica,sans-Serif" font-size="10.00">compute_loss_accuracy</text>
</a>
</g>
</g>
<!-- Node15&#45;&gt;Node18 -->
<g id="edge18_Node000015_Node000018" class="edge">
<title>Node15&#45;&gt;Node18</title>
<g id="a_edge18_Node000015_Node000018"><a xlink:title=" ">
<path fill="none" stroke="#63b8ff" d="M179.99,-149.05C202.17,-156.79 234.48,-167.79 263,-176.5 269.22,-178.4 275.79,-180.31 282.29,-182.15"/>
<polygon fill="#63b8ff" stroke="#63b8ff" points="281.79,-185.64 292.36,-184.96 283.67,-178.9 281.79,-185.64"/>
</a>
</g>
</g>
<!-- Node19 -->
<g id="Node000019" class="node">
<title>Node19</title>
<g id="a_Node000019"><a xlink:href="train_8c.html#af8ec7c8e288bad0b3243516a3b94ce82" target="_top" xlink:title=" ">
<polygon fill="white" stroke="#666666" points="370.5,-167 288.5,-167 288.5,-148 370.5,-148 370.5,-167"/>
<text text-anchor="middle" x="329.5" y="-155" font-family="Helvetica,sans-Serif" font-size="10.00">forward_pass</text>
</a>
</g>
</g>
<!-- Node15&#45;&gt;Node19 -->
<g id="edge19_Node000015_Node000019" class="edge">
<title>Node15&#45;&gt;Node19</title>
<g id="a_edge19_Node000015_Node000019"><a xlink:title=" ">
<path fill="none" stroke="#63b8ff" d="M194.15,-143.72C219.19,-146.29 251.37,-149.59 277.95,-152.32"/>
<polygon fill="#63b8ff" stroke="#63b8ff" points="277.91,-155.83 288.22,-153.37 278.63,-148.87 277.91,-155.83"/>
</a>
</g>
</g>
<!-- Node22 -->
<g id="Node000022" class="node">
<title>Node22</title>
<g id="a_Node000022"><a xlink:href="train_8c.html#af45b379a1f8599ed7a63b03d911f5de2" target="_top" xlink:title=" ">
<polygon fill="white" stroke="#666666" points="372.5,-130 286.5,-130 286.5,-111 372.5,-111 372.5,-130"/>
<text text-anchor="middle" x="329.5" y="-118" font-family="Helvetica,sans-Serif" font-size="10.00">prepare_batch</text>
</a>
</g>
</g>
<!-- Node15&#45;&gt;Node22 -->
<g id="edge22_Node000015_Node000022" class="edge">
<title>Node15&#45;&gt;Node22</title>
<g id="a_edge22_Node000015_Node000022"><a xlink:title=" ">
<path fill="none" stroke="#63b8ff" d="M194.15,-135.05C218.65,-132.39 249.99,-129 276.24,-126.16"/>
<polygon fill="#63b8ff" stroke="#63b8ff" points="276.83,-129.61 286.39,-125.06 276.07,-122.66 276.83,-129.61"/>
</a>
</g>
</g>
<!-- Node23 -->
<g id="Node000023" class="node">
<title>Node23</title>
<g id="a_Node000023"><a xlink:href="train_8c.html#a437746e641f2bd51b37181f853986a82" target="_top" xlink:title=" ">
<polygon fill="white" stroke="#666666" points="371,-93 288,-93 288,-74 371,-74 371,-93"/>
<text text-anchor="middle" x="329.5" y="-81" font-family="Helvetica,sans-Serif" font-size="10.00">save_weights</text>
</a>
</g>
</g>
<!-- Node15&#45;&gt;Node23 -->
<g id="edge23_Node000015_Node000023" class="edge">
<title>Node15&#45;&gt;Node23</title>
<g id="a_edge23_Node000015_Node000023"><a xlink:title=" ">
<path fill="none" stroke="#63b8ff" d="M180.47,-129.9C202.66,-122.24 234.73,-111.35 263,-102.5 269.99,-100.31 277.43,-98.07 284.69,-95.93"/>
<polygon fill="#63b8ff" stroke="#63b8ff" points="285.8,-99.25 294.42,-93.09 283.84,-92.53 285.8,-99.25"/>
</a>
</g>
</g>
<!-- Node24 -->
<g id="Node000024" class="node">
<title>Node24</title>
<g id="a_Node000024"><a xlink:href="train_8c.html#a7a1e34018704a0309544d274d9af3520" target="_top" xlink:title=" ">
<polygon fill="white" stroke="#666666" points="368,-56 291,-56 291,-37 368,-37 368,-56"/>
<text text-anchor="middle" x="329.5" y="-44" font-family="Helvetica,sans-Serif" font-size="10.00">shuffle_data</text>
</a>
</g>
</g>
<!-- Node15&#45;&gt;Node24 -->
<g id="edge24_Node000015_Node000024" class="edge">
<title>Node15&#45;&gt;Node24</title>
<g id="a_edge24_Node000015_Node000024"><a xlink:title=" ">
<path fill="none" stroke="#63b8ff" d="M164.48,-129.99C183.72,-114.48 224.22,-83.63 263,-65.5 268.7,-62.83 274.86,-60.46 281.04,-58.36"/>
<polygon fill="#63b8ff" stroke="#63b8ff" points="282.23,-61.66 290.7,-55.3 280.11,-54.98 282.23,-61.66"/>
</a>
</g>
</g>
<!-- Node25 -->
<g id="Node000025" class="node">
<title>Node25</title>
<g id="a_Node000025"><a xlink:href="train_8c.html#a0c77fb0483f3a735de5fb2ef3d74a0ff" target="_top" xlink:title=" ">
<polygon fill="white" stroke="#666666" points="377,-19 282,-19 282,0 377,0 377,-19"/>
<text text-anchor="middle" x="329.5" y="-7" font-family="Helvetica,sans-Serif" font-size="10.00">update_network</text>
</a>
</g>
</g>
<!-- Node15&#45;&gt;Node25 -->
<g id="edge25_Node000015_Node000025" class="edge">
<title>Node15&#45;&gt;Node25</title>
<g id="a_edge25_Node000015_Node000025"><a xlink:title=" ">
<path fill="none" stroke="#63b8ff" d="M159.74,-129.73C175.3,-107.94 216.01,-55.12 263,-27.5 265.99,-25.74 269.15,-24.15 272.42,-22.71"/>
<polygon fill="#63b8ff" stroke="#63b8ff" points="273.76,-25.95 281.8,-19.05 271.21,-19.43 273.76,-25.95"/>
</a>
</g>
</g>
<!-- Node17 -->
<g id="Node000017" class="node">
<title>Node17</title>
<g id="a_Node000017"><a xlink:href="train_8c.html#ac5ac4bb5fc903348dece824ce5ddb25a" target="_top" xlink:title=" ">
<polygon fill="white" stroke="#666666" points="522,-241 432,-241 432,-222 522,-222 522,-241"/>
<text text-anchor="middle" x="477" y="-229" font-family="Helvetica,sans-Serif" font-size="10.00">relu_derivative</text>
</a>
</g>
</g>
<!-- Node16&#45;&gt;Node17 -->
<g id="edge17_Node000016_Node000017" class="edge">
<title>Node16&#45;&gt;Node17</title>
<g id="a_edge17_Node000016_Node000017"><a xlink:title=" ">
<path fill="none" stroke="#63b8ff" d="M375.74,-231.5C390.24,-231.5 406.46,-231.5 421.55,-231.5"/>
<polygon fill="#63b8ff" stroke="#63b8ff" points="421.79,-235 431.79,-231.5 421.79,-228 421.79,-235"/>
</a>
</g>
</g>
<!-- Node20 -->
<g id="Node000020" class="node">
<title>Node20</title>
<g id="a_Node000020"><a xlink:href="train_8c.html#adb6293450780c47c93c102da587f72ff" target="_top" xlink:title=" ">
<polygon fill="white" stroke="#666666" points="494.5,-185 459.5,-185 459.5,-166 494.5,-166 494.5,-185"/>
<text text-anchor="middle" x="477" y="-173" font-family="Helvetica,sans-Serif" font-size="10.00">relu</text>
</a>
</g>
</g>
<!-- Node19&#45;&gt;Node20 -->
<g id="edge20_Node000019_Node000020" class="edge">
<title>Node19&#45;&gt;Node20</title>
<g id="a_edge20_Node000019_Node000020"><a xlink:title=" ">
<path fill="none" stroke="#63b8ff" d="M370.64,-162.47C395.65,-165.56 427.15,-169.46 449.16,-172.18"/>
<polygon fill="#63b8ff" stroke="#63b8ff" points="448.78,-175.66 459.13,-173.41 449.64,-168.71 448.78,-175.66"/>
</a>
</g>
</g>
<!-- Node21 -->
<g id="Node000021" class="node">
<title>Node21</title>
<g id="a_Node000021"><a xlink:href="train_8c.html#ada4131daa6fd8cbfd794235c891e3250" target="_top" xlink:title=" ">
<polygon fill="white" stroke="#666666" points="505,-148 449,-148 449,-129 505,-129 505,-148"/>
<text text-anchor="middle" x="477" y="-136" font-family="Helvetica,sans-Serif" font-size="10.00">softmax</text>
</a>
</g>
</g>
<!-- Node19&#45;&gt;Node21 -->
<g id="edge21_Node000019_Node000021" class="edge">
<title>Node19&#45;&gt;Node21</title>
<g id="a_edge21_Node000019_Node000021"><a xlink:title=" ">
<path fill="none" stroke="#63b8ff" d="M370.64,-152.26C391.94,-149.48 417.94,-146.08 438.79,-143.36"/>
<polygon fill="#63b8ff" stroke="#63b8ff" points="439.4,-146.81 448.86,-142.04 438.49,-139.87 439.4,-146.81"/>
</a>
</g>
</g>
</g>
</svg>
