<?xml version="1.0" encoding="UTF-8" standalone="no"?>
<!DOCTYPE svg PUBLIC "-//W3C//DTD SVG 1.1//EN"
 "http://www.w3.org/Graphics/SVG/1.1/DTD/svg11.dtd">
<!-- Generated by graphviz version 2.42.4 (0)
 -->
<!-- Title: forward_pass Pages: 1 -->
<svg width="182pt" height="64pt"
 viewBox="0.00 0.00 182.00 64.00" xmlns="http://www.w3.org/2000/svg" xmlns:xlink="http://www.w3.org/1999/xlink">
<g id="graph0" class="graph" transform="scale(1 1) rotate(0) translate(4 60)">
<title>forward_pass</title>
<!-- Node1 -->
<g id="Node000001" class="node">
<title>Node1</title>
<g id="a_Node000001"><a xlink:title=" ">
<polygon fill="#999999" stroke="#666666" points="82,-37 0,-37 0,-18 82,-18 82,-37"/>
<text text-anchor="middle" x="41" y="-25" font-family="Helvetica,sans-Serif" font-size="10.00">forward_pass</text>
</a>
</g>
</g>
<!-- Node2 -->
<g id="Node000002" class="node">
<title>Node2</title>
<g id="a_Node000002"><a xlink:href="train_8c.html#adb6293450780c47c93c102da587f72ff" target="_top" xlink:title=" ">
<polygon fill="white" stroke="#666666" points="163.5,-56 128.5,-56 128.5,-37 163.5,-37 163.5,-56"/>
<text text-anchor="middle" x="146" y="-44" font-family="Helvetica,sans-Serif" font-size="10.00">relu</text>
</a>
</g>
</g>
<!-- Node1&#45;&gt;Node2 -->
<g id="edge1_Node000001_Node000002" class="edge">
<title>Node1&#45;&gt;Node2</title>
<g id="a_edge1_Node000001_Node000002"><a xlink:title=" ">
<path fill="none" stroke="#63b8ff" d="M82.12,-34.9C94.27,-37.14 107.32,-39.55 118.36,-41.59"/>
<polygon fill="#63b8ff" stroke="#63b8ff" points="117.77,-45.04 128.24,-43.41 119.04,-38.15 117.77,-45.04"/>
</a>
</g>
</g>
<!-- Node3 -->
<g id="Node000003" class="node">
<title>Node3</title>
<g id="a_Node000003"><a xlink:href="train_8c.html#ada4131daa6fd8cbfd794235c891e3250" target="_top" xlink:title=" ">
<polygon fill="white" stroke="#666666" points="174,-19 118,-19 118,0 174,0 174,-19"/>
<text text-anchor="middle" x="146" y="-7" font-family="Helvetica,sans-Serif" font-size="10.00">softmax</text>
</a>
</g>
</g>
<!-- Node1&#45;&gt;Node3 -->
<g id="edge2_Node000001_Node000003" class="edge">
<title>Node1&#45;&gt;Node3</title>
<g id="a_edge2_Node000001_Node000003"><a xlink:title=" ">
<path fill="none" stroke="#63b8ff" d="M82.12,-20.49C90.63,-19 99.58,-17.44 107.97,-15.97"/>
<polygon fill="#63b8ff" stroke="#63b8ff" points="108.62,-19.41 117.87,-14.24 107.41,-12.52 108.62,-19.41"/>
</a>
</g>
</g>
</g>
</svg>
