<?xml version="1.0" encoding="UTF-8" standalone="no"?>
<!DOCTYPE svg PUBLIC "-//W3C//DTD SVG 1.1//EN"
 "http://www.w3.org/Graphics/SVG/1.1/DTD/svg11.dtd">
<!-- Generated by graphviz version 2.42.4 (0)
 -->
<!-- Title: preprocess_grid Pages: 1 -->
<svg width="260pt" height="212pt"
 viewBox="0.00 0.00 260.00 212.00" xmlns="http://www.w3.org/2000/svg" xmlns:xlink="http://www.w3.org/1999/xlink">
<g id="graph0" class="graph" transform="scale(1 1) rotate(0) translate(4 208)">
<title>preprocess_grid</title>
<!-- Node1 -->
<g id="Node000001" class="node">
<title>Node1</title>
<g id="a_Node000001"><a xlink:title=" ">
<polygon fill="#999999" stroke="#666666" points="94,-111 0,-111 0,-92 94,-92 94,-111"/>
<text text-anchor="middle" x="47" y="-99" font-family="Helvetica,sans-Serif" font-size="10.00">preprocess_grid</text>
</a>
</g>
</g>
<!-- Node2 -->
<g id="Node000002" class="node">
<title>Node2</title>
<g id="a_Node000002"><a xlink:href="utils_8c.html#a8b8c5ef5eb34311a44afb0dca3515a62" target="_top" xlink:title=" ">
<polygon fill="white" stroke="#666666" points="247,-204 135,-204 135,-185 247,-185 247,-204"/>
<text text-anchor="middle" x="191" y="-192" font-family="Helvetica,sans-Serif" font-size="10.00">bilinear_interpolate</text>
</a>
</g>
</g>
<!-- Node1&#45;&gt;Node2 -->
<g id="edge1_Node000001_Node000002" class="edge">
<title>Node1&#45;&gt;Node2</title>
<g id="a_edge1_Node000001_Node000002"><a xlink:title=" ">
<path fill="none" stroke="#63b8ff" d="M55.82,-111.03C69.33,-126.88 98.62,-158.69 130,-176.5 133.07,-178.24 136.33,-179.83 139.68,-181.28"/>
<polygon fill="#63b8ff" stroke="#63b8ff" points="138.68,-184.65 149.27,-185 141.21,-178.12 138.68,-184.65"/>
</a>
</g>
</g>
<!-- Node3 -->
<g id="Node000003" class="node">
<title>Node3</title>
<g id="a_Node000003"><a xlink:href="utils_8c.html#a322c51e33866a7d367c227275f96bcc9" target="_top" xlink:title=" ">
<polygon fill="white" stroke="#666666" points="252,-167 130,-167 130,-148 252,-148 252,-167"/>
<text text-anchor="middle" x="191" y="-155" font-family="Helvetica,sans-Serif" font-size="10.00">calculate_dimensions</text>
</a>
</g>
</g>
<!-- Node1&#45;&gt;Node3 -->
<g id="edge2_Node000001_Node000003" class="edge">
<title>Node1&#45;&gt;Node3</title>
<g id="a_edge2_Node000001_Node000003"><a xlink:title=" ">
<path fill="none" stroke="#63b8ff" d="M66.56,-111.03C82.97,-119.23 107.7,-131.04 130,-139.5 134.89,-141.36 140.07,-143.15 145.25,-144.84"/>
<polygon fill="#63b8ff" stroke="#63b8ff" points="144.55,-148.29 155.13,-147.96 146.65,-141.61 144.55,-148.29"/>
</a>
</g>
</g>
<!-- Node4 -->
<g id="Node000004" class="node">
<title>Node4</title>
<g id="a_Node000004"><a xlink:href="utils_8c.html#a18488a38ee9e1564b4f4498e23ffed95" target="_top" xlink:title=" ">
<polygon fill="white" stroke="#666666" points="240,-130 142,-130 142,-111 240,-111 240,-130"/>
<text text-anchor="middle" x="191" y="-118" font-family="Helvetica,sans-Serif" font-size="10.00">close_debug_log</text>
</a>
</g>
</g>
<!-- Node1&#45;&gt;Node4 -->
<g id="edge3_Node000001_Node000004" class="edge">
<title>Node1&#45;&gt;Node4</title>
<g id="a_edge3_Node000001_Node000004"><a xlink:title=" ">
<path fill="none" stroke="#63b8ff" d="M94.1,-107.67C106.12,-109.28 119.22,-111.03 131.77,-112.71"/>
<polygon fill="#63b8ff" stroke="#63b8ff" points="131.31,-116.18 141.69,-114.04 132.24,-109.24 131.31,-116.18"/>
</a>
</g>
</g>
<!-- Node5 -->
<g id="Node000005" class="node">
<title>Node5</title>
<g id="a_Node000005"><a xlink:href="utils_8c.html#a17a70dd5a0eb5cab8f04530af4573b19" target="_top" xlink:title=" ">
<polygon fill="white" stroke="#666666" points="240,-93 142,-93 142,-74 240,-74 240,-93"/>
<text text-anchor="middle" x="191" y="-81" font-family="Helvetica,sans-Serif" font-size="10.00">debug_print_grid</text>
</a>
</g>
</g>
<!-- Node1&#45;&gt;Node5 -->
<g id="edge4_Node000001_Node000005" class="edge">
<title>Node1&#45;&gt;Node5</title>
<g id="a_edge4_Node000001_Node000005"><a xlink:title=" ">
<path fill="none" stroke="#63b8ff" d="M94.1,-95.66C106,-94.15 118.96,-92.51 131.4,-90.93"/>
<polygon fill="#63b8ff" stroke="#63b8ff" points="132.21,-94.35 141.69,-89.62 131.33,-87.41 132.21,-94.35"/>
</a>
</g>
</g>
<!-- Node6 -->
<g id="Node000006" class="node">
<title>Node6</title>
<g id="a_Node000006"><a xlink:href="utils_8c.html#a73e441f626659500174c898e56f181be" target="_top" xlink:title=" ">
<polygon fill="white" stroke="#666666" points="240.5,-56 141.5,-56 141.5,-37 240.5,-37 240.5,-56"/>
<text text-anchor="middle" x="191" y="-44" font-family="Helvetica,sans-Serif" font-size="10.00">find_grid_bounds</text>
</a>
</g>
</g>
<!-- Node1&#45;&gt;Node6 -->
<g id="edge5_Node000001_Node000006" class="edge">
<title>Node1&#45;&gt;Node6</title>
<g id="a_edge5_Node000001_Node000006"><a xlink:title=" ">
<path fill="none" stroke="#63b8ff" d="M68.31,-91.86C84.75,-84.23 108.61,-73.56 130,-65.5 135.7,-63.35 141.76,-61.24 147.76,-59.25"/>
<polygon fill="#63b8ff" stroke="#63b8ff" points="149.27,-62.44 157.71,-56.03 147.12,-55.78 149.27,-62.44"/>
</a>
</g>
</g>
<!-- Node7 -->
<g id="Node000007" class="node">
<title>Node7</title>
<g id="a_Node000007"><a xlink:href="utils_8c.html#a0677da37b66afc30330b446d9ec75380" target="_top" xlink:title=" ">
<polygon fill="white" stroke="#666666" points="239,-19 143,-19 143,0 239,0 239,-19"/>
<text text-anchor="middle" x="191" y="-7" font-family="Helvetica,sans-Serif" font-size="10.00">open_debug_log</text>
</a>
</g>
</g>
<!-- Node1&#45;&gt;Node7 -->
<g id="edge6_Node000001_Node000007" class="edge">
<title>Node1&#45;&gt;Node7</title>
<g id="a_edge6_Node000001_Node000007"><a xlink:title=" ">
<path fill="none" stroke="#63b8ff" d="M56.58,-91.54C70.49,-75.96 99.51,-45.84 130,-28.5 133.74,-26.37 137.75,-24.45 141.86,-22.72"/>
<polygon fill="#63b8ff" stroke="#63b8ff" points="143.44,-25.86 151.53,-19.03 140.94,-19.32 143.44,-25.86"/>
</a>
</g>
</g>
</g>
</svg>
